<?xml version="1.0" encoding="utf-8"?>
<!-- Generator: Adobe Illustrator 22.1.0, SVG Export Plug-In . SVG Version: 6.00 Build 0)  -->
<svg version="1.1" id="Capa_1" xmlns="http://www.w3.org/2000/svg" xmlns:xlink="http://www.w3.org/1999/xlink" x="0px" y="0px"
	 viewBox="0 0 660 463" style="enable-background:new 0 0 660 463;" xml:space="preserve">
<style type="text/css">
	.st0{fill:#02CCB9;}
	.st1{fill:#01B7A6;}
	.st2{fill:#FFE2D6;}
	.st3{fill:#2880B9;}
	.st4{fill:#2C3D50;}
	.st5{fill:#FFFFFF;stroke:#2C3D50;stroke-width:1.92;}
	.st6{fill:none;stroke:#2C3D50;stroke-width:1.92;stroke-linecap:round;stroke-linejoin:round;}
	.st7{fill:none;stroke:#2C3D50;stroke-width:1.92;}
</style>
<title>03_dudas</title>
<desc>Created with Sketch.</desc>
<g id="Group-4" transform="translate(249.000000, 93.000000)">
	<g id="Group-3">
		<path id="Fill-793-Copy" class="st0" d="M107.3,141.7c-0.1,0-0.3,0-0.4,0l-0.1,0l-0.1,0c-0.3,0-0.5,0.1-0.7,0.1
			c-0.3,0.1-0.6,0.2-0.9,0.2l-0.2,0.1l-0.3,0.1c-0.5,0.1-0.9,0.3-1.4,0.4c-1,0.3-2.2,0.7-3.3,1.1c-1.5,0.6-2.7,1-3.7,1.5
			c-0.9,0.4-1.9,0.9-3.1,1.5c-1.9,1-3.9,2.1-6.4,3.6c-1.3,0.8-2.6,1.6-3.8,2.3c-0.7,0.4-1.4,0.9-2.1,1.3c-0.6,0.3-1.1,0.7-1.7,1
			c-0.5,0.3-1,0.6-1.5,0.9c-0.9,0.6-1.9,1.2-2.9,1.8l-0.9,0.6c-0.7,0.5-1.5,0.9-2.2,1.4c-0.9,0.6-1.8,1.2-2.8,1.9
			c-1.1,0.8-2.2,1.6-3.2,2.4c-0.9,0.7-1.8,1.5-2.9,2.4c-1,0.8-1.8,1.6-2.6,2.3c-0.7,0.6-1.4,1.3-2.1,1.9l-0.6,0.5
			c-0.9,0.8-1.7,1.6-2.5,2.4c-0.9,0.9-1.8,1.9-2.5,2.8c-0.8,0.9-1.5,1.8-2.2,2.6c-0.8,1-1.6,2-2.4,3.1c-1.2,1.7-2.4,3.6-3.9,6.1
			c-1.1,1.9-2.2,3.8-3.2,5.7l-0.3,0.5c-0.8,1.4-1.4,2.6-1.9,3.7l-0.1,0.1c-0.3,0.6-0.6,1.2-0.9,1.9c-0.4,0.9-0.7,1.7-1,2.5
			c-0.2,0.5,0,1.1,0.4,1.6l-0.3,0.5c-0.3,0.6-0.7,1.1-1,1.7c-0.6,0.9-1.1,1.8-1.7,2.8l-0.9,1.5l0,0l0,0c-0.1,0.1-0.1,0.2-0.2,0.3
			c-0.1,0.1-0.1,0.2-0.2,0.3c-0.1,0.2-0.2,0.4-0.3,0.6c-0.1,0.1-0.1,0.2-0.1,0.3c0,0.1,0,0.1,0,0.2c-0.1,0.2-0.3,0.3-0.4,0.5
			c-0.2,0.2-0.3,0.3-0.5,0.5l0,0c-0.1,0.1-0.2,0.1-0.3,0.2c-0.2,0.2-0.4,0.3-0.7,0.5c-0.1,0.1-0.2,0.1-0.2,0.2
			c-0.1,0.1-0.2,0.3-0.3,0.4c-0.1,0.2-0.1,0.3-0.2,0.5c-0.1,0.3-0.1,0.7,0,1c0.2,0.7,0.8,1.3,1.7,1.6c0.7,0.2,1.5,0.3,2.2,0.3
			c0.4,0,0.9,0,1.4,0.1c0.6,0,1.2,0.1,1.8,0.2c0.2,0,0.4,0,0.6,0.1c0.3,0,0.7,0.1,1,0.1c0.4,0,0.7,0.1,1.1,0.1
			c2.1,0.4,4.3,1,6.7,1.8c0.6,0.2,1.2,0.4,1.9,0.6c0.5,0.2,1,0.3,1.5,0.5l0.6,0.2c0.8,0.3,1.7,0.6,2.6,0.9l0.3,0.1
			c0.4,0.1,0.8,0.2,1.3,0.4c0.2,0.1,0.5,0.2,0.7,0.2c0.1,0,0.2,0.1,0.3,0.1c0.2,0.1,0.5,0.1,0.8,0.1h0c0.2,0,0.4,0,0.5-0.1
			c0.1,0,0.1,0,0.2,0c1-0.2,1.8-0.9,2.5-1.6c0.3-0.3,0.6-0.6,0.9-1c0.1-0.1,0.2-0.2,0.3-0.4c0.6-0.7,1.2-1.4,1.8-2.1l0.4-0.5
			c0.2-0.3,0.5-0.5,0.7-0.8c0.5-0.6,1.1-1.3,1.6-1.9c0.6-0.8,1.5-1.9,2.3-3c0.4-0.5,0.7-1.1,1.1-1.6c0.3-0.4,0.6-0.9,0.9-1.3
			c0.4-0.5,0.8-1.1,1.1-1.6c1-1.4,2-2.8,3-4.3c2.3-3.4,4.7-6.7,7.1-9.9l1.2-1.6c0.5-0.8,1.1-1.5,1.6-2.3c0.8-1.1,1.6-2.2,2.4-3.3
			c0.4-0.5,0.7-1,1.1-1.5c0.3-0.4,0.7-0.9,1-1.3l0.4-0.5c0.5-0.7,1.1-1.4,1.6-2.1c0.1-0.2,0.3-0.4,0.4-0.6c0-0.1,0-0.2,0.1-0.3
			c0.1-0.7,0.5-1.5,0.9-2.1c0.2-0.3,0.3-0.5,0.5-0.8c0.1-0.2,0.2-0.4,0.3-0.6c0.3-0.6,0.6-1.3,0.9-1.9c0.3-0.6,0.6-1.2,1-1.7
			c0.4-0.6,0.8-1.3,1.2-1.9c0.2-0.3,0.3-0.5,0.5-0.8c0.4-0.7,0.8-1.4,1.2-2.2c0.4-0.7,0.8-1.3,1.1-2l0.5-0.8c0.2-0.4,0.4-0.7,0.6-1
			c0.4-0.7,0.9-1.3,1.4-1.9c0.5-0.5,1.1-0.9,1.7-1.2c0.1-0.2,0.2-0.4,0.3-0.6c0.9-2.2,2-4.3,3-6.4c0.5-1,1.1-2.1,1.6-3.1
			c0.3-0.5,0.5-1,0.8-1.5c0.1-0.3,0.3-0.5,0.4-0.8c0.2-0.3,0.3-0.7,0.5-1c0.4-0.6,0.9-1.2,1.4-1.8c0.3-0.3,0.6-0.5,0.9-0.7
			c0-0.2,0-0.5,0-0.7c0-0.2,0-0.5-0.1-0.7c0-0.2-0.1-0.3-0.2-0.5l-0.1-0.1c-0.1-0.2-0.2-0.3-0.4-0.5l0,0c-0.3-0.3-0.8-0.5-1-0.6
			C108.3,141.7,107.9,141.7,107.3,141.7L107.3,141.7z"/>
		<path id="Fill-795-Copy" class="st0" d="M107.5,145.5c0,0,0,0.1,0.1,0.1C107.5,145.6,107.5,145.5,107.5,145.5 M108.2,143.4
			c-0.3,0.1-0.6,0.3-0.8,0.6c-0.2,0.4-0.3,1,0,1.4c0,0,0,0,0,0c0,0,0,0,0,0c-0.1,0.3-0.2,0.6-0.3,0.9c-0.1,0.3-0.3,0.6-0.5,0.9
			c-0.1,0.2-0.3,0.4-0.5,0.7c-1,1.2-2.1,2.4-3.2,3.6c-0.2,0.2-0.3,0.5-0.3,0.7c0,0.3,0.1,0.6,0.3,0.7c0.4,0.4,1.1,0.4,1.5,0
			c0.6-0.7,1.3-1.4,1.9-2.2c0.1-0.2,0.2-0.4,0.3-0.6c0.1-0.3,0.3-0.5,0.4-0.8c0.2-0.3,0.3-0.7,0.5-1c0.4-0.6,0.9-1.2,1.4-1.8
			c0.2-0.2,0.3-0.3,0.5-0.5c0-0.1,0.1-0.1,0.1-0.2c0.1-0.3,0.1-0.5,0.2-0.8c0-0.3,0-0.6-0.1-0.9c-0.2-0.6-0.7-1-1.3-1
			C108.4,143.3,108.3,143.3,108.2,143.4"/>
		<path id="Fill-797-Copy" class="st0" d="M106.5,273.2c-0.6-0.1-1.3-0.2-2.1-0.3c-0.3,0-0.6-0.1-0.8-0.1l0.1-0.1
			c0.2-0.2,0.5-0.5,0.8-0.7c0.2-0.2,0.4-0.5,0.4-0.7c0-0.1,0-0.1,0-0.2l0.2-0.3l0.1-0.1l0,0c0.1,0.3,0.3,0.5,0.6,0.7
			c0.2,0.1,0.4,0.2,0.6,0.2c0.1,0,0.2,0,0.2,0l-0.1,0.4l-0.2,0.5C106.3,272.6,106.3,272.9,106.5,273.2z M156,174.6
			c0.2,0,0.5-0.1,0.7-0.1c0.2-0.1,0.4-0.2,0.6-0.2c-0.4,0.5-0.7,1-1.1,1.4c-0.3-0.3-0.5-0.6-0.9-1l-0.1-0.1l-0.1-0.2
			c0.1,0.1,0.2,0.1,0.4,0.1l0.2,0L156,174.6z M185,140L185,140c-0.3,0-0.6,0.1-0.8,0.2c-0.3,0.1-0.5,0.2-0.7,0.4
			c0,0-0.1-0.1-0.1-0.1c-0.2-0.1-0.5-0.2-0.7-0.2c-0.1,0-0.2,0-0.4,0c-0.3,0.1-0.6,0.3-0.8,0.6c-0.5,0.7-0.9,1.5-1.3,2.2l0,0.1
			c-0.4,0.7-0.9,1.5-1.3,2.1c-0.4,0.6-0.9,1.3-1.3,1.9l-0.1,0.1c-0.4,0.5-0.8,1.1-1.2,1.6l-0.2,0.2c-0.7,0.8-1.3,1.7-2.1,2.6
			c-0.1,0-0.2-0.1-0.4-0.1l0,0c-0.1,0-0.2,0-0.3,0c-0.2,0.1-0.4,0.2-0.6,0.3c-0.2,0.1-0.3,0.3-0.5,0.4c-0.1,0.1-0.3,0.3-0.4,0.5l0,0
			c-0.2,0.2-0.3,0.4-0.5,0.7c-0.3,0.5-0.6,1-0.9,1.5c-0.5,0.8-0.9,1.6-1.2,2.2l-0.5,0.4c-0.3,0.3-0.6,0.6-0.9,0.9
			c-0.4,0.4-0.8,0.8-1.2,1.2c-0.2-0.1-0.4-0.1-0.6-0.1c-0.2,0-0.3,0-0.4,0.1c-0.5,0.1-0.9,0.3-1.3,0.5c-0.2,0.1-0.4,0.3-0.6,0.5
			l-0.3,0.2c-0.1,0.1-0.2,0.2-0.3,0.3l-2.9,2.2l-1.4,1.1l-1.1,0.8l-1.1,0.8l-0.5,0.4l-0.5,0.4c-0.2,0.1-0.4,0.3-0.5,0.4
			c-0.7,0.5-1.4,1.1-2.1,1.7c-0.3,0.3-0.5,0.8-0.5,1.2c-0.1,0-0.2,0-0.2,0c-0.2,0-0.4,0.1-0.6,0.1c-0.2,0.1-0.3,0.3-0.4,0.5
			c-0.2,0-0.4-0.1-0.6-0.1l0,0l-0.3,0c-0.2,0-0.5,0.1-0.7,0.1c-0.3,0.1-0.7,0.2-1,0.4l-0.2,0.1c-0.4,0.2-0.7,0.4-1,0.6
			c-0.5,0.4-0.9,0.7-1.3,1.1c-0.3,0.3-0.5,0.6-0.7,0.8l-0.1,0.1c-0.4,0.5-0.8,1-1.1,1.5c-1.3,1.7-2.3,3.2-3.3,4.7
			c-1,1.6-2,3.3-2.9,5.1c-0.5,1.1-1,2.3-1.5,3.4l-0.1,0.4c-0.1,0.3-0.3,0.7-0.4,1c-0.1,0.2-0.2,0.4-0.2,0.6
			c-0.2,0.4-0.4,0.9-0.5,1.3l-0.1,0.3l0,0l0,0c-0.6,1.4-1.2,2.9-1.9,4.4c-0.6,1.5-1.2,3-1.8,4.5l-0.1,0.3c-0.5,1.3-1,2.7-1.6,4
			l-0.2,0.6l-0.1,0.3c-0.5,1.3-1,2.6-1.6,4c-0.4,0.9-0.8,1.7-1.1,2.5c-0.6,1.2-1.1,2.5-1.7,3.8c-0.4,1-0.8,2-1.2,3
			c-0.4,1-0.8,2-1.2,2.9c-0.9,2.1-1.8,4.1-2.5,5.6c-0.7,1.5-1.4,3.1-2,4.5l-0.4,1c-0.5,1.1-1,2.2-1.5,3.3c-0.3,0.8-0.7,1.5-1,2.3
			c-0.9,2-1.7,3.9-2.6,5.6l-1,2.1c-1.4,3-2.9,6.1-4.3,9.2c-0.5,1.1-1,2.2-1.5,3.3c-0.3,0.7-0.6,1.4-0.9,2.1c-0.4,1-0.9,2-1.3,3
			l-0.2,0.4c-0.4,0.8-0.7,1.6-1.1,2.4l-0.5,1.4c-0.2,0.4-0.4,1-0.5,1.5c-0.3,0.2-0.5,0.5-0.8,0.7c-0.3,0.3-0.7,0.7-0.8,1.3
			c-0.1,0.4-0.1,0.9,0.1,1.4c0.1,0.5,0.3,0.9,0.5,1.3c0.4,0.6,1,1,1.7,1.1c0.4,0.1,0.8,0.1,1.2,0.1c0.4,0,0.8,0.1,1.3,0.1
			c1.1,0.2,2.2,0.5,3.3,0.7c0.4,0.1,0.8,0.2,1.3,0.3c0.3,0.1,0.7,0.2,1.1,0.2c0.5,0.1,1,0.2,1.7,0.2c0.2,0,0.4,0,0.6,0.1
			c0.2,0,0.4,0,0.6,0c0.4,0,0.7,0.1,1.1,0.1c0.7,0.1,1.4,0.3,2.1,0.5c0.4,0.2,0.8,0.4,1.2,0.5c0.5,0.2,0.9,0.4,1.4,0.7
			c0.4,0.2,0.9,0.4,1.3,0.5c0.6,0.2,1.3,0.4,2,0.5c0.5,0.1,0.9,0.1,1.4,0.2c0.2,0,0.3,0,0.5,0.1c0.2,0,0.3,0,0.4,0.1
			c0.4,0.1,0.7,0.1,1.1,0.1l0.9,0.1l0.9,0.1c0.9,0.1,1.8,0.2,2.7,0.2l1.8,0.1l1.7,0.1c0.7,0.1,1.5,0.1,2.2,0.2
			c0.4,0,0.7,0.1,1.1,0.1c0.2,0,0.4,0,0.6,0.1c0.6,0.1,1.2,0.1,1.8,0.2l2,0.3l2,0.3c0.7,0.1,1.3,0.2,2,0.3l0.5,0.1
			c0.3,0,0.6,0.1,0.9,0.1c0.6,0.1,1.3,0.2,2,0.3l1.9,0.2l1.9,0.2c0.7,0.1,1.3,0.1,2,0.2c0.3,0,0.6,0.1,0.9,0.1c0.2,0,0.4,0,0.7,0.1
			c0.6,0.1,1.2,0.1,1.9,0.2l4,0.3c1.3,0.1,2.5,0.1,3.8,0.2c0.5,0,1,0,1.6,0.1c2.3,0.1,4.7,0.2,7,0.3c0.7,0,1.5,0,2.2,0l0.7,0l0,0
			c0.5,0,0.9,0,1.4,0l0.1,0c0.3,0,0.5,0,0.8,0c0.1,0,0.3,0,0.4,0l2.1-0.1l0.1,0c0.3,0,0.6,0,0.8,0l1-0.1l1-0.1l0.4,0
			c0.5,0,0.9-0.1,1.4-0.1c1.1-0.2,2.1-0.3,3.2-0.5c0.7-0.1,1.5-0.2,2.2-0.4c0.4-0.1,0.7-0.1,1.1-0.2c0.9-0.2,1.9-0.3,2.7-0.4
			c1.1-0.1,2.2-0.2,3.2-0.2c0.7,0,1.4,0,2,0.1c0.9,0.1,1.9,0.3,2.8,0.6c0.2,0.1,0.5,0.1,0.7,0.2c0.2,0.1,0.4,0.1,0.6,0.2
			c0.5,0.2,1.1,0.3,1.6,0.4l0.1,0c0.9,0.2,2,0.4,3.3,0.4c0.2,0,0.5,0,0.8,0c0.7,0,1.5,0,2.4-0.1c1-0.1,2.1-0.3,3.3-0.5
			c0.8-0.1,1.8-0.3,2.9-0.6l1.2-0.3l1.2-0.3l0.3-0.1c1.3-0.3,2.6-0.6,3.8-0.9l3-0.8c1.3-0.3,2.8-0.7,4.2-0.9c0.4,0,0.9-0.1,1.4-0.2
			c0.2,0,0.4,0,0.7,0c0.2,0,0.5,0,0.8,0c0.4,0.1,0.8,0.2,1.2,0.3c0.3,0.1,0.6,0.3,0.9,0.5c0.2,0.2,0.5,0.3,0.7,0.5
			c0.8,0.6,1.4,1.1,2.1,1.5c0.3,0.2,0.7,0.3,1,0.5l0.2,0.1c0.4,0.1,0.8,0.2,1.2,0.2l0.1,0c0,0,0.1,0,0.1,0c0.2,0,0.3,0,0.5,0
			c0.3,0,0.5-0.1,0.8-0.1c0.4-0.1,0.9-0.2,1.3-0.3c0.2-0.1,0.4-0.1,0.7-0.2c0.1,0,0.2-0.1,0.3-0.1c1.1-0.4,2.2-0.8,3.3-1.2l0.6-0.2
			c1.9-0.7,3.7-1.6,5.5-2.4c0.6-0.3,1.2-0.5,1.7-0.8l0.8-0.3c1.4-0.6,2.9-1.2,4.3-1.8c1-0.4,1.9-0.9,2.9-1.3
			c0.7-0.3,1.4-0.6,2.2-0.9l0.1,0l0.4-0.2c0.8-0.3,1.6-0.6,2.4-0.9c1-0.4,2-0.7,3-1.1c0.4-0.1,0.7-0.3,1.1-0.4
			c0.6-0.2,1.1-0.4,1.7-0.6c1-0.4,2.1-0.7,3.2-1c0.4-0.1,0.7-0.2,1.1-0.3c1.5-0.5,3-1,4.5-1.6l0.3-0.1c0.4-0.2,0.9-0.4,1.3-0.6
			c0.6-0.3,1.1-0.6,1.6-0.8c0.4-0.2,0.9-0.5,1.3-0.7l0,0c0.1-0.1,0.3-0.2,0.4-0.3l0.1-0.1l0.2-0.1c0.3-0.2,0.7-0.4,1-0.7
			c0.2-0.2,0.4-0.4,0.5-0.6c0.1-0.2,0.2-0.4,0.3-0.7l0-0.1l0-0.1c0.1-0.2,0.1-0.4,0.1-0.6c0-0.2,0-0.4-0.1-0.6l0-0.2
			c-0.1-0.5-0.2-0.9-0.2-1.3c-0.2-0.9-0.4-1.6-0.6-2.3c-0.1-0.3-0.2-0.6-0.3-0.9c-0.1-0.1-0.1-0.3-0.2-0.4c-0.2-0.5-0.3-1-0.5-1.4
			c-0.2-0.9-0.5-1.8-0.8-2.6c-0.6-1.9-1.2-3.8-1.8-5.6c-0.5-1.6-1.1-3.2-1.6-4.7l-0.3-0.9c-0.3-1-0.6-1.9-0.9-2.9
			c-0.3-1-0.6-1.9-1-2.9c-0.1-0.4-0.3-0.8-0.4-1.3c-0.2-0.5-0.4-1.1-0.5-1.6c-0.2-0.6-0.4-1.3-0.6-1.9c-0.1-0.3-0.2-0.7-0.3-1
			c-0.6-2-1.4-3.9-2.1-5.7c-0.8-2-1.6-4-2.2-5.7c-0.7-1.7-1.5-3.4-2.6-5.6l-0.2-0.3c-0.4-0.8-0.8-1.5-1.2-2.3
			c-0.3-0.5-0.5-1.1-0.7-1.6c-0.2-0.4-0.3-0.7-0.5-1.1c-0.4-0.8-0.8-1.7-1.2-2.5c-0.4-0.9-0.9-1.9-1.4-2.8l-0.3-0.7
			c-0.7-1.5-1.4-3-2.2-4.5c-1-1.9-2.1-3.9-3-5.5c-0.4-0.7-0.8-1.4-1.2-2.1l-0.4-0.7c-0.5-0.9-1-1.7-1.4-2.4c-0.5-0.8-1-1.6-1.6-2.4
			c-0.6-0.9-1.2-1.9-1.8-2.9l-0.3-0.5c-0.4-0.6-0.8-1.3-1.2-1.9c-0.5-0.8-1.1-1.6-1.7-2.5c-1.2-1.7-2.5-3.4-3.9-5.1
			c-1.3-1.6-2.8-3.1-4.1-4.5c-0.5-0.6-1.1-1.1-1.6-1.6c-0.2-0.2-0.4-0.4-0.5-0.5c-0.6-0.6-1.3-1.3-2-2.1c-1.5-1.6-2.8-2.9-4.1-4.1
			l-0.3-0.3c-0.6-0.6-1.2-1.1-1.8-1.7c-1-0.8-1.8-1.5-2.6-2c-0.7-0.5-1.6-1-2.5-1.5c-0.9-0.5-1.9-0.9-2.8-1.2c-1-0.4-1.9-0.7-2.8-1
			c-0.8-0.3-1.8-0.6-2.8-0.9c-0.7-0.2-1.4-0.4-2.1-0.6l-0.5-0.1l-1.4-0.4l-1.4-0.4l-0.3-0.1c-1.8-0.5-3.7-1-5.5-1.5
			c-0.7-0.2-1.4-0.4-2.1-0.7c-1.1-0.4-2.3-0.7-3.4-1c-1-0.2-2-0.5-3-0.7c-0.8-0.2-1.7-0.3-2.5-0.5l-0.5-0.1
			c-1.6-0.3-3.3-0.7-4.9-1.1c-0.3-0.1-0.6-0.2-1-0.2c-0.6-0.1-1.1-0.3-1.7-0.5l-0.2-0.1c-0.2-0.1-0.5-0.1-0.7-0.2
			c-0.3-0.1-0.7-0.2-1-0.3c-0.4-0.1-0.8-0.2-1.2-0.3c-0.2-0.1-0.4-0.1-0.7-0.2c-0.6-0.1-1.1-0.3-1.7-0.6c-0.2-0.1-0.5-0.2-0.7-0.3
			l-0.2-0.1l0,0c-0.2-0.1-0.4-0.2-0.6-0.2C185.8,140.1,185.5,140.1,185,140z"/>
		<path id="Fill-799-Copy" class="st0" d="M111.2,267.4c-1.1,1-2.2,2-3.4,3c-0.3,0-0.6,0-0.9,0.2c-0.1,0.1-0.2,0.1-0.3,0.2
			c-0.2,0.2-0.3,0.4-0.4,0.6c-0.1,0.2-0.2,0.5-0.2,0.7c-0.1,0.5,0,1,0.4,1.4c0.4,0.4,0.9,0.5,1.4,0.4c0.4-0.1,0.7-0.4,1.1-0.7
			c0.2-0.2,0.4-0.3,0.6-0.5c0.4-0.4,0.8-0.8,1.2-1.1c0.8-0.7,1.6-1.5,2.3-2.2c0.5-0.5,0.5-1.3,0-1.8c-0.2-0.2-0.6-0.4-0.9-0.4
			C111.7,267.1,111.4,267.2,111.2,267.4"/>
		<path id="Fill-801-Copy" class="st0" d="M158.3,174.7C158.4,174.7,158.4,174.7,158.3,174.7C158.4,174.7,158.4,174.7,158.3,174.7
			 M157,174.3c-0.2,0.1-0.5,0.2-0.6,0.4c-0.2,0.2-0.3,0.4-0.4,0.6c-0.1,0.3-0.2,0.6-0.3,0.8c-0.1,0.3-0.1,0.6-0.2,0.9
			c-0.1,0.3-0.1,0.5-0.2,0.8c-0.1,0.5-0.2,1-0.3,1.5c-0.1,0.4-0.1,0.7,0.1,1.1c0.2,0.3,0.5,0.5,0.8,0.6c0.7,0.2,1.5-0.2,1.7-1
			c0.1-0.5,0.2-0.9,0.3-1.4c0.1-0.2,0.1-0.5,0.2-0.7c0-0.1,0-0.2,0.1-0.3c0.1,0,0.1,0,0.2,0c0.3,0,0.7-0.1,1-0.1
			c0.4-0.1,0.7-0.4,0.9-0.7c0.2-0.3,0.3-0.8,0.2-1.1c-0.1-0.4-0.4-0.7-0.7-0.9c-0.1,0-0.2-0.1-0.4-0.1c-0.2-0.1-0.5-0.1-0.7,0
			c-0.1,0-0.1,0-0.2,0c-0.1-0.1-0.3-0.2-0.4-0.3c-0.2-0.1-0.5-0.2-0.8-0.2C157.2,174.2,157.1,174.3,157,174.3"/>
		<path id="Fill-803-Copy" class="st1" d="M47.2,219.7c0,0,0,0.1,0,0.1C47.2,219.8,47.2,219.7,47.2,219.7 M46.5,218.5
			C46.5,218.5,46.5,218.5,46.5,218.5C46.5,218.5,46.5,218.5,46.5,218.5 M46.7,218.3C46.7,218.4,46.7,218.4,46.7,218.3
			C46.7,218.4,46.7,218.4,46.7,218.3 M47,217.6c0,0.1,0,0.2,0,0.4c-0.1,0.2-0.2,0.3-0.4,0.5c-0.2,0.1-0.4,0.2-0.5,0.3
			C46.4,218.3,46.7,218,47,217.6 M52.2,219.2C52.2,219.2,52.2,219.2,52.2,219.2c0.2-0.3,0.3-0.6,0.4-0.9c0.3-0.6,0.6-1.2,0.8-1.7
			c0.1,0.2,0.3,0.5,0.5,0.6c0,0,0.1,0,0.1,0.1c-0.4,0.8-0.7,1.6-1.1,2.5C52.7,219.5,52.4,219.4,52.2,219.2 M96.4,152.9
			C96.4,152.9,96.4,152.9,96.4,152.9c0,0.1,0,0.1,0,0.2C96.4,153,96.4,153,96.4,152.9 M103.4,146.1
			C103.4,146.1,103.4,146.1,103.4,146.1c0-0.1,0.1-0.1,0.1-0.2C103.5,146,103.5,146,103.4,146.1
			C103.5,146.1,103.4,146.1,103.4,146.1 M105.6,142c-0.2,0.2-0.4,0.5-0.6,0.8c0,0-0.1,0.1-0.1,0.1c-0.1,0-0.3,0-0.4,0.1
			c-0.1,0-0.3,0.1-0.4,0.1c-0.1,0-0.1,0-0.2,0c-0.1,0-0.2,0-0.3,0c-0.2,0.1-0.3,0.1-0.5,0.3c-0.1,0.1-0.2,0.2-0.3,0.3
			c-0.1,0.1-0.3,0.2-0.4,0.2c-0.3,0.2-0.5,0.4-0.8,0.6c-0.1,0.1-0.1,0.1-0.2,0.2c-0.2,0-0.4,0-0.5,0.1c-0.2,0.1-0.3,0.2-0.5,0.4
			c0-0.2-0.1-0.4-0.3-0.6c-0.2-0.2-0.4-0.3-0.6-0.3c-0.3-0.3-0.9-0.4-1.3-0.1c-0.3,0.2-0.5,0.4-0.7,0.6c-0.1,0.1-0.2,0.2-0.3,0.4
			c-0.2,0.2-0.3,0.4-0.5,0.5c-0.2,0.2-0.4,0.4-0.6,0.7c-0.1,0.1-0.1,0.1-0.2,0.2c0,0-0.1,0-0.1,0.1c0,0,0,0,0-0.1
			c0-0.1-0.1-0.1-0.1-0.2c-0.1-0.2-0.3-0.4-0.5-0.5c-0.3-0.2-0.5-0.2-0.8-0.1c-0.3,0.1-0.5,0.2-0.7,0.4c-0.2,0.3-0.4,0.5-0.4,0.9
			c0,0.2,0.1,0.4,0.2,0.6c-0.1,0.1-0.1,0.2-0.2,0.4c-0.1,0.1-0.1,0.3-0.2,0.4c-0.1,0.1-0.1,0.3-0.2,0.4c0,0,0,0,0,0
			c-0.6-0.2-1.2,0.2-1.3,0.8c-0.1,0.2-0.1,0.5-0.1,0.7c-0.2,0.2-0.3,0.5-0.3,0.8c0,0.3-0.1,0.6-0.1,0.9c0,0.5-0.1,1-0.1,1.6
			c0,0,0,0.1,0,0.1c-0.1,0.6-0.2,1.3-0.4,1.9c-0.1,0.5-0.2,1-0.3,1.5c-0.1,0.6-0.3,1.1-0.4,1.7c-0.2,1-0.6,1.9-0.9,2.9
			c-0.2,0.7-0.5,1.4-0.8,2.1c-0.2,0.4-0.4,0.9-0.6,1.3c-0.2,0.4-0.3,0.7-0.5,1c-0.2,0.4-0.4,0.8-0.6,1.2c-0.3,0.5-0.6,1.1-0.9,1.6
			c-0.4,0.8-0.9,1.6-1.3,2.4c-0.2,0.4-0.4,0.8-0.6,1.2c-0.3,0.5-0.5,1.1-0.7,1.7c-0.1,0.2-0.1,0.4,0,0.6c-1.1,1.4-2.3,2.8-3.4,4.1
			c0,0-0.1,0-0.1,0.1c-0.2,0.1-0.3,0.2-0.5,0.3c-0.2,0.2-0.4,0.4-0.6,0.6c-0.2,0.3-0.4,0.6-0.6,0.9c-0.4,0.3-0.7,0.7-1.1,1.1
			c-0.2,0.2-0.4,0.4-0.6,0.7c-0.3,0.3-0.6,0.6-0.9,0.9c-0.7,0.7-1.4,1.4-2,2.1c-1.4,1.6-2.9,3.1-4.3,4.7c-2.7,2.9-5.4,5.9-8.1,8.9
			c-0.9,1.1-1.9,2.1-2.8,3.2c-0.6,0.7-1.2,1.3-1.8,2c-1.5,1.8-3,3.5-4.5,5.2c-0.4,0.5-0.9,1.1-1.3,1.6c-0.7,0.9-1.4,1.7-2.2,2.6
			c-0.3,0.4-0.6,0.7-1,1.1c-0.3,0.3-0.6,0.6-0.9,1c-1,1.1-2,2.2-2.9,3.2c-0.2,0.2-0.3,0.5-0.2,0.7c0,0,0,0.1-0.1,0.1
			c-0.1,0.1-0.2,0.2-0.3,0.4c-0.1,0.2-0.2,0.4-0.3,0.6c-0.1,0.1-0.1,0.3-0.1,0.4c0,0.2,0.1,0.4,0.2,0.6c0.3,0.3,0.9,0.3,1.2,0
			c0.5-0.6,1-1.2,1.5-1.9c0,0.1,0,0.2,0,0.3c0,0.1,0,0.3,0.1,0.4c0.1,0.1,0.1,0.3,0.2,0.4c0.1,0.1,0.2,0.2,0.2,0.3
			c0.2,0.2,0.4,0.3,0.6,0.5c0.3,0.2,0.7,0.4,1.1,0.5c0.4,0.2,0.8,0.3,1.3,0.4c0.4,0.1,0.8,0.2,1.2,0.3c0.2,0.1,0.5,0.1,0.7,0.1
			c0.3,0,0.5-0.1,0.7-0.2c0.3-0.1,0.4-0.4,0.5-0.7c0.2,0.1,0.3,0.2,0.5,0.2c0.3,0.2,0.7,0.3,1,0.4c0.3,0.1,0.6,0.2,0.9,0.2
			c0.4,0.1,0.8,0.1,1.2-0.1c0.4-0.2,0.8-0.4,1.2-0.7c0.4-0.3,0.7-0.6,1-0.9c0.1,0,0.1,0,0.2,0c0.1,0,0.2-0.1,0.3-0.1
			c0.2-0.1,0.3-0.2,0.4-0.4c0.5-0.6,0.9-1.2,1.4-1.9c0.2-0.3,0.4-0.6,0.6-0.9c0.2-0.3,0.5-0.6,0.7-0.9c0.4-0.5,0.8-1,1.1-1.5
			c0.6-0.8,1.2-1.7,1.8-2.5c0.3-0.4,0.6-0.9,0.9-1.3c0.4-0.6,0.8-1.1,1.2-1.7c0.2-0.3,0.4-0.6,0.5-0.9c0.2-0.3,0.4-0.7,0.5-1.1
			c0.1-0.2,0.3-0.4,0.4-0.6c0.5-0.8,1.1-1.5,1.6-2.2c0.3-0.4,0.5-0.8,0.7-1.2c0.1-0.3,0.2-0.6,0.3-0.8c0-0.1,0-0.2,0.1-0.3
			c0.1-0.1,0.2-0.2,0.3-0.4c0.1,0,0.3-0.1,0.4-0.1c0.3-0.2,0.6-0.4,0.9-0.6c0.2-0.2,0.4-0.4,0.5-0.6c0.1,0,0.1,0,0.2,0
			c0.3-0.1,0.5-0.3,0.6-0.5c0-0.1,0.1-0.1,0.1-0.2c0.1-0.1,0.2-0.2,0.3-0.3c0.6-0.8,1.2-1.5,1.7-2.3c0.4-0.4,0.8-0.9,1.2-1.3
			c0.5-0.6,1.1-1.2,1.6-1.8c0.9-1.1,1.8-2.2,2.7-3.3c0.7-0.9,1.4-1.7,2.1-2.6c0.8-1,1.5-1.9,2.2-2.9c0.3-0.5,0.7-0.9,1-1.4
			c0.3-0.5,0.6-1,0.9-1.5c0.2-0.3,0.2-0.8,0-1.1c-0.2-0.3-0.5-0.5-0.9-0.5c0.1-0.1,0.2-0.3,0.3-0.4c0.3-0.4,0.5-0.8,0.8-1.2
			c0.1-0.1,0.2-0.2,0.2-0.4c0.5,0.1,1-0.1,1.2-0.5c0.2-0.4,0.5-0.8,0.7-1.2c0.1-0.1,0.1-0.2,0.2-0.3c0.4-0.6,0.7-1.2,1.1-1.8
			c0.1-0.2,0.2-0.4,0.3-0.6c0.1,0,0.1,0,0.2,0c0.3-0.1,0.5-0.3,0.6-0.5c0.3-0.4,0.5-0.8,0.8-1.2l0.3-0.5c0.1-0.2,0.2-0.4,0.4-0.6
			c0.1,0.1,0.3,0.2,0.5,0.2c0.2-0.4,0.5-0.8,0.7-1.1c0.2-0.3,0.3-0.5,0.5-0.8c0.4-0.7,0.8-1.4,1.2-2.2c0.4-0.7,0.8-1.3,1.1-2
			c0.2-0.3,0.3-0.5,0.5-0.8c0.2-0.4,0.4-0.7,0.6-1c0.4-0.7,0.9-1.2,1.4-1.9c0.5-0.5,1.1-0.9,1.7-1.2c0.1-0.2,0.2-0.4,0.3-0.6
			c0.9-2.2,2-4.3,3-6.4c0.5-1,1-2,1.5-3c0,0,0,0,0,0c0.3-0.8,0.5-1.6,0.8-2.3c0.1-0.4,0.3-0.8,0.4-1.2c0.2-0.5,0.4-1,0.5-1.5
			c0.1-0.3,0.1-0.6,0.1-0.9c0-0.2,0-0.4-0.1-0.6c0-0.2-0.2-0.4-0.2-0.5c-0.1-0.1-0.1-0.2-0.2-0.3c0,0,0,0,0,0c0.1-0.3,0.1-0.6,0.1-1
			c0-0.3-0.2-0.6-0.3-0.9c-0.1-0.2-0.4-0.4-0.6-0.5c-0.1,0-0.2,0-0.3,0C106.1,141.7,105.8,141.8,105.6,142"/>
		<path id="Fill-805-Copy" class="st1" d="M162.7,164.8c-0.1,0.1-0.1,0.1-0.2,0.2c-0.1,0.1-0.1,0.3-0.1,0.5c0,0.3-0.1,0.7-0.1,1
			c-0.4-0.1-0.7,0.1-0.9,0.4c-0.4,0.7-0.4,1.6-0.5,2.4c-0.1,0.5-0.1,1-0.2,1.5c-0.1,0.7-0.2,1.4-0.3,2.1c-0.1,0.8-0.2,1.5-0.3,2.3
			c-0.1,0.5-0.1,1.1-0.2,1.6c-0.1,0.6-0.1,1.1-0.2,1.7c0,0.3,0.2,0.7,0.6,0.8c0,0.1,0,0.1,0,0.2c0,0.2,0,0.4,0.1,0.6
			c0.1,0.2,0.3,0.3,0.5,0.4c0.2,0.1,0.4,0,0.6-0.1c0.1-0.1,0.3-0.2,0.3-0.3c0,0,0,0,0.1,0c0.4,0,0.7-0.2,0.9-0.5
			c0.1-0.1,0.1-0.2,0.2-0.3c0.1-0.1,0.2-0.2,0.2-0.3c0.2-0.2,0.4-0.4,0.5-0.6c0.4-0.4,0.8-0.9,1.2-1.3c0.4-0.4,0.8-0.9,1.2-1.3
			c0.4-0.4,0.7-0.8,1.1-1.2l0,0.1c0,0.1,0.1,0.2,0.1,0.2c0.1,0.2,0.2,0.3,0.3,0.4c0.2,0.2,0.3,0.3,0.6,0.4c0.3,0.1,0.5,0.2,0.8,0.1
			c0.2-0.1,0.3-0.1,0.5-0.3c0.1-0.1,0.2-0.3,0.3-0.5c0-0.2,0.1-0.5,0.1-0.7c0-0.1,0-0.2,0-0.3c0-0.2-0.1-0.4-0.1-0.6
			c0-0.1,0-0.2-0.1-0.3c0.1-0.1,0.1-0.3,0.1-0.5c0-0.3-0.2-0.6-0.4-0.8c0,0,0,0,0,0c-0.1-0.2-0.1-0.4-0.2-0.6
			c-0.1-0.3-0.2-0.5-0.5-0.6c-0.2-0.1-0.5-0.2-0.8-0.1c0,0,0-0.1,0-0.1c0-0.1,0-0.1-0.1-0.2c-0.2-0.6-0.3-1.1-0.5-1.7
			c-0.1-0.3-0.2-0.5-0.4-0.6c-0.1-0.4-0.2-0.7-0.3-1.1c-0.1-0.5-0.6-0.8-1-0.8c-0.2,0-0.4,0.1-0.5,0.1c0,0,0,0,0,0
			c-0.1,0-0.3-0.1-0.4-0.1c0-0.1-0.1-0.3-0.2-0.4c-0.1-0.2-0.1-0.3-0.3-0.5c0,0,0,0-0.1,0c-0.1-0.4-0.5-0.7-0.9-0.7
			C163.1,164.5,162.9,164.6,162.7,164.8"/>
		<path id="Fill-807-Copy" class="st1" d="M160,164.6c-0.2,0.1-0.3,0.2-0.4,0.4c-0.1,0.1-0.1,0.3-0.2,0.4c-0.1,0.2-0.1,0.3-0.1,0.5
			c0,0.2-0.1,0.3-0.1,0.5c0,0.2-0.1,0.4-0.1,0.6c-0.2,0-0.4,0.1-0.5,0.3c-0.2,0.2-0.3,0.4-0.3,0.7c0,0.4-0.1,0.8-0.1,1.2
			c0,0.2,0.1,0.4,0.2,0.6c0,0.6,0,1.2-0.1,1.9c0,0.2,0,0.5-0.1,0.7c0,0.3,0.1,0.6,0.4,0.8c0,0.3,0,0.6,0,0.8c0,0.5,0.4,1,1,1
			c0.5,0,1-0.5,1-1c0-0.5,0-1,0-1.5c0-0.3,0-0.6,0-0.9c0-0.3,0-0.6,0-0.9c0-0.1,0-0.2,0-0.3c0.1-0.4,0.2-0.9,0.2-1.3
			c0.1-0.5,0.2-0.9,0.3-1.4c0-0.2,0.1-0.4,0.1-0.5c0-0.1,0-0.2,0-0.2c0.1-0.1,0.2-0.2,0.2-0.3c0.2-0.2,0.2-0.5,0.2-0.8
			c0-0.2,0-0.3,0-0.5c-0.1-0.2-0.2-0.4-0.3-0.5c-0.2-0.2-0.5-0.3-0.8-0.3C160.3,164.5,160.1,164.5,160,164.6"/>
		<path id="Fill-809-Copy" class="st1" d="M236.6,279.9C236.6,279.9,236.6,279.9,236.6,279.9C236.6,279.9,236.6,279.9,236.6,279.9
			 M235.8,277.6L235.8,277.6c0,0,0.1,0,0.1,0c0,0-0.1,0.1-0.1,0.1C235.8,277.6,235.8,277.6,235.8,277.6 M232.5,254.9
			c-0.1,0.2-0.2,0.4-0.3,0.6c0,0.1,0,0.2-0.1,0.4c0,0.2,0,0.3-0.1,0.5c0,0.3-0.1,0.7-0.1,1c-0.1,0-0.1,0.1-0.2,0.1
			c-0.1,0.1-0.1,0.1-0.2,0.2c-0.1,0.2-0.1,0.4-0.1,0.5c-0.1,0.7-0.1,1.4-0.2,2.1c0,0.7-0.1,1.4-0.1,2.1c-0.2,0-0.3,0.1-0.5,0.1
			c-0.3,0.1-0.4,0.4-0.5,0.6c0,0.1-0.1,0.2-0.1,0.3c0,0.1-0.1,0.2-0.1,0.3c0,0.3-0.1,0.6-0.1,0.9c0,0.4,0,0.7-0.1,1.1
			c0,0.4-0.1,0.7-0.1,1.1c-0.1,0.7-0.1,1.4-0.2,2c-0.1,0.5-0.1,1.1-0.1,1.6c-0.1,0.1-0.2,0.3-0.2,0.4c-0.1,0.6-0.2,1.2-0.2,1.8
			c0,0.3-0.1,0.6-0.1,1c0,0.1,0,0.2,0,0.3c0,0,0,0,0,0.1c-0.1,0.2-0.1,0.4-0.2,0.5c-0.1,0.8-0.1,1.5-0.2,2.3
			c-0.1,0.7-0.1,1.4-0.2,2.2c0,0.1,0,0.2,0.1,0.4c0,0.3,0,0.5,0,0.8c0,0.2-0.1,0.4-0.1,0.6c0,0.2,0.1,0.4,0.1,0.5
			c0.1,0.2,0.4,0.4,0.6,0.5c0.1,0,0.2,0,0.3,0c0.2,0,0.4-0.1,0.5-0.1c0.2-0.1,0.4-0.4,0.5-0.6c0.1-0.2,0.1-0.5,0.1-0.7
			c0,0,0-0.1,0-0.1c0,0,0.1,0,0.1,0c0.5,0.1,1-0.1,1.2-0.5c0.1-0.2,0.3-0.5,0.4-0.7c0,0,0,0,0-0.1c0.3,0.2,0.6,0.3,0.9,0.2
			c0.1,0,0.3-0.1,0.4-0.1c0,0,0,0,0,0c0,0,0,0,0.1,0c0,0,0.1,0,0.1,0.1c0.1,0.3,0.3,0.5,0.6,0.7c0.2,0.1,0.4,0.2,0.6,0.2
			c0.1,0,0.2,0,0.3,0c0.1,0,0.2,0,0.3,0c0.2,0,0.3,0,0.5-0.1c0,0,0.1,0,0.1,0c0.1,0,0.2-0.1,0.3-0.1c0,0.1,0,0.1,0.1,0.2
			c0.1,0.2,0.1,0.3,0.3,0.5c0.2,0.2,0.5,0.3,0.8,0.3c0.2,0,0.4,0,0.5-0.1c0.3-0.2,0.4-0.4,0.5-0.6c0,0,0,0,0,0
			c0.2-0.1,0.4-0.4,0.5-0.6c0.1-0.2,0.1-0.4,0.1-0.6c0-0.2,0-0.4,0-0.5c0-0.1,0-0.3,0-0.4c0-0.3,0-0.5,0-0.8c0-0.5,0-1,0-1.5
			c0-0.2,0-0.5,0-0.7c0-0.3-0.1-0.6-0.3-0.8c-0.1-0.1-0.3-0.2-0.4-0.3c0-0.6-0.1-1.1-0.1-1.7c0-0.5-0.1-1-0.1-1.5c0-0.3,0-0.5,0-0.8
			c0-0.3,0-0.6-0.1-0.9c0-0.1-0.1-0.3-0.2-0.4c-0.1-0.1-0.1-0.2-0.2-0.2c0-1.1-0.1-2.2-0.1-3.3c0-0.9-0.1-1.7-0.1-2.6
			c0-0.2,0-0.4-0.1-0.5c-0.1-0.2-0.4-0.4-0.6-0.5c-0.1,0-0.2,0-0.3,0c0-0.1,0-0.2,0-0.3c0-0.1,0-0.2,0-0.3c-0.1-0.2-0.1-0.3-0.3-0.5
			c-0.1-0.1-0.1-0.1-0.2-0.1c0-0.2,0-0.4-0.1-0.6c0-0.1,0-0.2,0-0.3c0-0.4,0-0.7,0-1.1c0-0.2,0-0.5,0-0.7c0-0.3,0-0.5-0.1-0.8
			c-0.1-0.3-0.2-0.6-0.5-0.7c0-0.2-0.1-0.4-0.1-0.5c-0.1-0.2-0.3-0.4-0.6-0.5c-0.2-0.4-0.5-0.6-0.9-0.6
			C233,254,232.6,254.4,232.5,254.9"/>
		<path id="Fill-811-Copy" class="st2" d="M152.7,92.2c0.3-0.1,0.7-0.2,1.1-0.5c0.4-0.2,0.9-0.5,1.3-0.8l0.1,0l0.1-0.1
			c1.6-1,3.2-1.9,4.7-2.8l1.2-0.7c1.9-1.1,4-2.3,6.1-3.5c2.3-1.2,4.3-2.4,6.3-3.5c2-1.1,4.2-2.4,6.4-3.6c0.8-0.5,1.7-1,2.5-1.5
			l0.1,0c1.1-0.7,2.3-1.4,3.4-2c0.7-0.4,1.3-0.7,2-1.1l0,0c0.6-0.3,1.2-0.7,1.8-1c0.3-0.2,0.6-0.5,0.7-0.8c0.1,0,0.1-0.1,0.2-0.1
			c0.3-0.1,0.5-0.3,0.8-0.4l0.1-0.1c0.9-0.5,1.9-1.2,3-1.7c0.1,0,0.1-0.1,0.2-0.1c0.2-0.1,0.4-0.2,0.6-0.2c0.1,0,0.1,0,0.1,0
			c0.1,0.1,0.3,0.2,0.4,0.2c0.2,0.2,0.4,0.4,0.6,0.6c0.2,0.2,0.3,0.5,0.5,0.8c0.1,0.3,0.2,0.7,0.3,1c0.1,0.4,0.2,0.8,0.2,1.3
			c0.1,0.5,0.1,1,0.1,1.4c0,0.5,0,1,0,1.5c-0.1,0.6-0.2,1-0.3,1.5c-0.2,0.7-0.4,1.3-0.6,1.9c-0.5,1-0.9,1.8-1.4,2.6
			c-0.2,0.3-0.5,0.5-0.8,0.8c-0.3,0.2-0.7,0.4-1.1,0.6c-0.8,0.3-1.4,0.5-2,0.6l-0.2,0c-0.4,0.1-0.7,0.1-1.1,0.2
			c-0.6,0.2-1.1,0.4-1.5,0.6c-0.4,0.2-0.7,0.4-1,0.6c-0.4,0.3-0.8,0.6-1.1,0.9c-0.1,0.1-0.2,0.2-0.3,0.3c0,0-0.1,0-0.1,0
			c-0.2,0-0.5,0-0.8,0c-0.7,0.1-1.4,0.2-2.2,0.4c-0.6,0.2-1.2,0.4-1.7,0.6l-0.2,0.1l-0.1-0.1l-0.2-0.1c-0.1,0-0.3-0.1-0.4-0.1
			c-0.1,0-0.3,0-0.4,0.1c-0.8,0.3-1.6,0.6-2.3,0.8l-0.1,0c-0.3,0.1-0.5,0.2-0.8,0.3c-1.1,0.4-2.1,0.7-3,1.1
			c-1.2,0.5-2.2,0.9-3.3,1.3c-0.7,0.3-1.4,0.5-2,0.7c-0.3,0.1-0.7,0.2-1,0.3c-0.2,0.1-0.3,0.1-0.5,0.2c-0.4,0.1-0.8,0.2-1.1,0.4
			l-1.1,0.4l-0.7,0.3c-0.4,0.1-0.7,0.3-1.1,0.4l-0.1,0c-0.2,0.1-0.3,0.1-0.5,0.2c-0.6,0.3-1.1,0.5-1.6,0.7c-2,0.9-4.1,1.9-6.7,3.1
			c-1.8,0.9-3.7,1.8-6.2,3c-0.6,0.3-1.3,0.6-1.9,1l-0.1,0c-0.3,0.2-0.6,0.3-0.9,0.5c-0.4,0.2-0.7,0.4-1,0.6
			c-0.2,0.1-0.3,0.2-0.5,0.3c-0.1,0.1-0.3,0.2-0.4,0.2c-0.3,0.2-0.6,0.3-0.9,0.5c-1.3,0.8-2.9,1.7-4.4,2.6c-0.7,0.4-1.3,0.8-2,1.2
			l-0.1,0.1c-0.3,0.2-0.6,0.3-0.8,0.5c-0.1,0.1-0.2,0.1-0.4,0.2l-0.2,0.1l-0.2,0.1c-0.3,0.1-0.6,0.3-0.8,0.5c-0.7,0.4-1,1.2-0.8,2
			c0,0.2,0.1,0.3,0.2,0.5c-0.6,0.3-1.2,0.6-1.8,0.9l-0.6,0.3c-0.8,0.4-1.5,0.8-2.2,1.1l0,0l-0.7,0.4c-1,0.5-2.1,1.1-3.1,1.5
			c-0.3,0.2-0.7,0.3-1,0.4l-0.1,0c-0.1,0.1-0.3,0.1-0.4,0.2l-0.1,0c-0.6,0.3-1.2,0.5-1.9,0.7c0-0.1-0.1-0.2-0.1-0.3
			c-0.3-0.8-0.5-1.6-0.8-2.5c-0.3-1-0.6-1.9-0.9-2.7l-0.2-0.5c-0.3-0.8-0.6-1.6-0.8-2.3c-0.1-0.3-0.2-0.5-0.3-0.8
			c-0.2-0.6-0.5-1.2-0.8-1.9l0,0c0,0,0-0.1-0.1-0.1c0-0.1-0.1-0.2-0.1-0.3l0,0l0,0c0-0.1-0.1-0.3-0.2-0.4l-0.1-0.1l0,0l-0.1-0.1
			l-0.1-0.1l0,0l0,0l0-0.1l0-0.1l0-0.1c0-0.1-0.1-0.2-0.1-0.3l0-0.1c0-0.1-0.1-0.2-0.1-0.3l-0.1-0.2l0-0.1l0,0
			c0-0.1-0.1-0.1-0.1-0.2l0-0.1l0-0.1l0,0c-0.1-0.2-0.2-0.5-0.3-0.7l-0.1-0.1l-0.1-0.2c-0.3-0.6-0.6-1.1-0.8-1.6
			c-0.2-0.4-0.5-0.7-0.7-0.9c-0.2-0.5-0.4-0.9-0.6-1.2c-0.2-0.4-0.5-0.8-0.8-1.1c-0.2-0.2-0.3-0.3-0.5-0.5c-0.1-0.1-0.2-0.2-0.3-0.3
			c-0.2-0.2-0.4-0.3-0.7-0.4c-0.1,0-0.3-0.1-0.4-0.1c-0.1,0-0.3,0-0.4,0.1c-0.1,0-0.1,0-0.1,0c0-0.1,0-0.2,0-0.3v-0.2l0-0.2
			c0-0.1,0.1-0.1,0.1-0.2c0.1-0.4,0.1-0.8-0.1-1.1c0-0.9,0-1.7,0-2.6c0-2.4,0.3-4.8,0.5-6.8l0.1-0.4l0.1-0.5
			c0.3-2.2,0.7-4.4,1.2-6.9c0-0.3,0.1-0.5,0.2-0.8c0.3,0.3,0.6,0.6,1,0.9l0,0c0.1,0.1,0.2,0.1,0.3,0.2c0.4,0.3,0.8,0.7,1.2,1.1
			c0.7,0.7,1.5,1.5,2.4,2.5c1.5,1.6,3,3.3,4.5,5.2c0.8,0.9,1.5,1.8,2.2,2.5c0.3,0.4,0.7,0.7,1.1,0.9c0.5,0.3,1.1,0.4,1.9,0.4
			c0.1,0,0.1,0,0.2,0c0.4,0,0.8-0.1,1.2-0.1c0.1,0,0.3,0,0.4,0c1.9-0.2,3.5-0.3,5.2-0.3c0.6,0,1.2,0,1.7,0.1c1,0.1,2,0.2,3.3,0.3
			c0.6,0.1,1.4,0.2,2.2,0.4c0.8,0.2,1.6,0.4,2.5,0.6c0.6,0.2,1.4,0.4,2.1,0.6c0.7,0.2,1.4,0.5,2.3,0.8c0.4,0.2,0.8,0.3,1.2,0.6
			c0.3,0.2,0.6,0.3,0.9,0.5c0.2,0.1,0.5,0.2,0.7,0.4c0.3,0.2,0.6,0.3,0.9,0.4c0.2,0.1,0.4,0.1,0.6,0.1
			C152,92.4,152.3,92.3,152.7,92.2 M148.1,17.9c-2.6,0-4.8,0.1-6.9,0.3c-1.2,0.1-2.4,0.2-3.6,0.3c-1.2,0.1-2.4,0.3-3.8,0.5
			c-1.1,0.2-2.4,0.4-3.6,0.8c-0.5,0.1-0.9,0.3-1.4,0.5l-0.3,0.1l0,0c-0.6,0.2-1.2,0.5-1.8,0.8c-0.4,0.3-0.8,0.6-1.1,0.9
			c-0.6,0.5-1.1,1.2-1.6,1.9c-0.3,0.5-0.6,1-0.9,1.5c-0.6,1-1.1,2.1-1.6,3.1c-0.6,1.3-1.1,2.4-1.5,3.3c-0.5,1.2-0.9,2.4-1.4,3.6
			c-0.8,2.2-1.5,4.4-2.1,6.6l0,0l0,0c-0.3,1.1-0.7,2.3-1.1,3.4c-0.4,1.1-0.8,2.3-1.2,3.6c-0.7,2.2-1.3,4.5-1.8,6.8
			c-0.3,1.2-0.5,2.4-0.8,3.5l0,0.2c-0.2,1.1-0.5,2.2-0.7,3.2l-0.4,1.7l-0.1,0.3l0,0.1c-0.4,1.6-0.8,3.3-1.1,5c-0.5,2.4-1,4.8-1.4,7
			c-0.2,1-0.3,2.1-0.6,3.5c-0.2,1.2-0.3,2.3-0.4,3.5l-0.1,0.6l0,0.2c-0.1,0.9-0.2,1.8-0.2,2.7c0,1.2,0,2.3,0,3.4c0,0.6,0,1.1,0,1.7
			c0,0.1-0.1,0.1-0.1,0.2c-0.2,0.3-0.2,0.6-0.2,0.9c0,0.1,0,0.2,0,0.4c0,0.3,0,0.5,0.1,0.8l0,0.1l0,0.1c0.1,0.7,0.2,1.3,0.2,2l0,0
			l0,0.1c0,0.3,0,0.5,0,0.8c0,0.3,0.1,0.6,0.2,0.8c0.1,1,0.3,1.8,0.4,2.5c0.2,1,0.4,2.1,0.6,3.1l0,0.1c0.3,1.5,0.7,3.1,0.9,4.8
			c0.1,0.8,0.2,1.6,0.3,2.3c0.1,0.5,0.1,1,0.2,1.4l0,0.1c0.1,0.4,0.1,0.8,0.2,1.2c0.2,1.8,0.4,3.6,0.5,5.3l0,0l0,0.4
			c0.1,1.1,0.2,2.1,0.2,3.2l0,0.1c0,0.7,0.1,1.5,0.1,2.2c0.1,1.7,0.2,3.4,0.1,5.1c-0.1,3.2-0.3,6.5-0.7,9.7
			c-0.6,3.7-1.5,7.2-2.7,10.3c-0.7,1.6-1.5,3.2-2.2,4.6c-0.7,1.5-1.6,3-2.7,4.6c-0.9,1.4-1.8,2.7-2.7,4c0.1,0,0.2-0.1,0.2-0.1
			c0.5-0.1,1-0.2,1.5-0.2c0.5,0,1,0.1,1.5,0.2c0.4,0.2,0.9,0.4,1.3,0.6c0,0,0,0,0.1,0c0.9,0.2,1.7,0.7,2.4,1.4
			c0.1,0.1,0.2,0.2,0.3,0.3c0.3,0.2,0.6,0.5,0.9,0.8c0.3,0.3,0.5,0.5,0.8,0.8c0.3,0.3,0.5,0.6,0.8,0.8c0.4-0.1,0.8-0.1,1-0.1
			c0.1,0,0.2,0,0.4,0c0.6-0.2,1.2-0.3,2-0.3h0.1c0.6,0,1.3,0,1.9,0.3c1.4,0.6,1.5,0.5,2.6,1.5c1,0.8,1.4,1.8,1.9,3
			c0.1,0.3,0.2,0.7,0.2,1c0,0.2,0.1,0.3,0.1,0.5c0.4,1,0.5,2.2,0.2,3.3c0.8,0.5,1.5,1,2.3,1.5c1,0.6,1.9,1.4,2.9,2.1
			c1.2,0.9,2.4,1.9,3.5,2.8c1,0.9,1.9,1.7,2.9,2.5c0.6,0.5,1.1,0.9,1.7,1.4c0.6,0.5,1.3,0.9,1.9,1.4c0.2,0.1,0.4,0.2,0.6,0.3
			c0.8,0.5,1.5,1.1,2,2c0.1,0.2,0.2,0.4,0.2,0.5c0.8-1.5,1.5-2.8,2.2-4l0.6-1c0.9-1.5,1.8-3.1,2.7-4.6c0.6-1,1.2-2,1.8-3
			c0.3-0.4,0.5-0.8,0.8-1.3l0.3-0.5c0.3-0.5,0.5-0.9,0.8-1.4c0.4-0.7,0.9-1.3,1.3-1.9c0.6-0.7,1.2-1.4,1.9-2
			c0.5-0.5,1.1-1.1,1.7-1.6l0.5-0.4c1.3-1.3,2.7-2.5,4-3.7l0.7-0.7c2.6-2.5,5.6-5.1,9.3-8.2l0.7-0.6c1.3-1.1,2.7-2.3,4-3.5
			c1.7-1.5,3.2-3,4.6-4.5c1.6-1.6,3.1-3.2,4.4-5c0.6-0.8,1.2-1.8,1.7-2.6c0.2-0.4,0.4-0.8,0.7-1.2c0.2-0.4,0.4-0.8,0.6-1.3
			c0.3-0.7,0.4-1.4,0.5-2.1c0.1-0.8-0.1-1.7-0.3-2.4c-0.1-0.5-0.3-0.9-0.4-1.5c-0.3-0.9-0.5-1.9-0.9-2.9c-0.3-0.9-0.7-1.9-1.1-2.8
			c-0.4-1-0.9-2.1-1.4-3c-0.5-1-1.1-1.8-1.6-2.6l-0.2-0.2c-0.6-0.8-1.2-1.7-1.7-2.5c-0.3-0.5-0.6-1-0.9-1.5
			c-0.2-0.4-0.5-0.8-0.7-1.2c-0.4-0.7-0.9-1.5-1.3-2.2l-0.3-0.6c-0.8-1.4-1.7-2.8-2.8-4.2c-0.6-0.8-1.4-1.5-2.5-2.2
			c-0.3-0.2-0.5-0.4-0.8-0.5c1-0.6,2-1.2,2.9-1.8c0.4-0.3,0.9-0.5,1.3-0.8c0.8-0.5,1.7-1.1,2.4-1.6l0.1-0.1c0.9-0.6,1.8-1.3,2.7-1.9
			l0.8-0.6c1.4-1,2.8-2.1,4.3-3.1c0.6-0.4,1.2-0.8,1.9-1.2c1.2-0.8,2.3-1.5,3.5-2.4c1-0.7,2.1-1.6,2.9-2.8c0.1-0.2,0.2-0.3,0.3-0.5
			c0.2-0.3,0.3-0.6,0.4-0.9l0.1-0.2c0.1-0.2,0.1-0.5,0.1-0.7l0-0.3c0-0.3-0.1-0.5-0.2-0.8c0,0,0-0.1,0-0.1c0.4-0.3,0.8-0.5,1.3-0.7
			c0.4-0.1,0.9-0.2,1.4-0.3c0.6-0.1,1.1-0.2,1.5-0.4c0.3-0.1,0.5-0.2,0.8-0.3l0,0c0.4-0.1,0.7-0.3,1.1-0.5c0.6-0.3,1.1-0.7,1.7-1.3
			c0.3-0.3,0.5-0.5,0.7-0.8l0.1-0.1c0.2-0.2,0.3-0.5,0.5-0.7c0.4-0.6,0.6-1,0.8-1.5c0.3-0.6,0.6-1.3,0.8-2c0.2-0.6,0.3-1.1,0.5-1.7
			c0.3-1.2,0.5-2.4,0.4-3.7c0-0.7-0.1-1.4-0.2-2.1c-0.1-0.6-0.2-1.2-0.3-1.7c-0.2-0.6-0.4-1.1-0.7-1.9c-0.2-0.4-0.5-0.8-0.8-1.2
			L199,66c-0.2-0.2-0.4-0.5-0.7-0.7c-0.2-0.2-0.4-0.3-0.7-0.5c-0.3-0.2-0.6-0.3-0.9-0.4l-0.1,0c-0.4-0.2-0.9-0.3-1.3-0.3l-0.1,0
			c-0.4,0-0.8,0.1-1.3,0.2c-0.4,0.1-0.8,0.3-1.1,0.5c-0.4,0.2-0.7,0.4-1.1,0.5c0-0.1,0.1-0.2,0.1-0.4c0.1-0.6,0.3-1.2,0.4-1.9l0-0.2
			c0.1-0.5,0.2-1,0.3-1.5c0.3-1.2,0.5-2.3,0.8-3.5c0.3-1.1,0.6-2.2,0.9-3.3c0.1-0.5,0.3-0.9,0.4-1.4l0,0c0.2-0.6,0.4-1.2,0.5-1.8
			c0.2-0.9,0.5-1.8,0.7-2.6l0,0l0.2-0.8c0.2-0.8,0.4-1.7,0.5-2.6c0-0.3,0-0.6,0-1c0-0.7-0.1-1.5-0.4-2.2c-0.3-0.8-0.7-1.5-1-2
			c-0.2-0.4-0.5-0.8-0.7-1.2c-0.1-0.3-0.2-0.6-0.2-0.9c0-0.5-0.1-1,0-1.5c0-0.5,0.1-1,0.1-1.4l0,0l0-0.2l0,0
			c0.1-1.1,0.2-2.3,0.1-3.4l0-0.1c-0.1-0.7-0.1-1.3-0.4-2c-0.3-0.8-0.6-1.4-0.9-1.9c-0.4-0.6-0.9-1.1-1.3-1.5
			c-0.4-0.4-0.8-0.8-1.3-1.1c-0.6-0.4-1.1-0.8-1.7-1.1c-0.6-0.3-1.3-0.6-1.9-0.8c-0.4-0.2-0.8-0.3-1.2-0.4l-0.1,0
			c-0.1,0-0.2-0.1-0.3-0.1c-0.1,0-0.3-0.1-0.4-0.1l-0.2-0.1c-0.4-0.1-0.7-0.2-1.1-0.3c-1.1-0.3-2.2-0.5-3.3-0.7
			c-1.1-0.2-2.2-0.3-3.3-0.5l-0.6-0.1l-0.2,0l-0.2,0l-0.2,0c-1-0.1-2.1-0.3-3.1-0.5c-1-0.2-2-0.4-3-0.7l-0.5-0.1
			c-1.3-0.3-2.3-0.5-3.3-0.7c-1.3-0.2-2.6-0.4-4.1-0.5c-1.9-0.2-3.8-0.2-5.6-0.2l-0.4,0c-0.4,0-0.8,0-1.1,0c-0.5,0-1,0-1.5,0l-0.5,0
			l-0.1,0c-1.3,0-2.5,0-3.8,0C148.9,17.9,148.5,17.9,148.1,17.9"/>
		<path id="Fill-813-Copy" class="st2" d="M95.5,170.4l-0.1,0.2c-1.6,2.4-3.3,5-5.1,7.4c-0.8,1.1-1.7,2.3-2.5,3.4
			c-1.4,1.9-2.9,3.9-4.3,5.8c-0.3,0.4-0.5,0.8-0.8,1.2l-0.3,0.5c-1.7,2.4-3.4,4.9-5.2,7.2c-0.3,0.4-0.7,0.9-1,1.3l-0.2,0.3
			c-0.7,1-1.5,2-2.3,3c-0.5,0.6-0.9,1.2-1.4,1.8l-0.1,0.1c-0.6,0.8-1.3,1.7-1.9,2.5c-2.2,2.8-4.6,5.6-6.8,8.4l-0.1,0.1
			c-1.2,1.4-2.3,2.8-3.6,4.3l0,0c-1.3,1.6-2.5,2.9-3.7,4c-0.6,0.6-1.3,1.2-2,1.7c-0.1,0-0.1,0.1-0.2,0.1c-0.3-0.1-0.5-0.1-0.8-0.2
			l0,0c-0.2-0.1-0.5-0.1-0.7-0.2c-0.8-0.2-1.5-0.3-2.2-0.5l-0.8-0.2c-1.3-0.3-2.9-0.7-4.3-1.1c-1.2-0.3-2.5-0.6-3.7-0.9
			c-0.5-0.1-1-0.2-1.5-0.4c-1-0.2-1.9-0.5-3-0.6c-0.6-0.1-1.2-0.1-1.7-0.2l-0.4,0l-0.6-0.1c-0.4,0-0.7-0.1-1-0.1c-0.1,0-0.2,0-0.3,0
			c-0.5,0-1.1,0.1-1.7,0.2c-0.6,0.1-1.2,0.4-1.6,0.6c-0.4,0.2-0.7,0.5-1,0.8l-0.2,0.1c-0.6,0.5-1.2,1.2-1.6,1.8
			c-0.6,0.7-1.2,1.5-1.8,2.3c-1,1.3-1.9,2.7-2.9,4.1l-0.1,0.2l-0.2,0.2c-1.2,1.7-2.2,3.2-3.1,4.7c-1,1.5-1.9,3.1-2.8,4.6
			c-1,1.7-2.1,3.4-3.2,5.2c-2.2,3.4-4.3,7-6.1,10c-2.4,4-4.7,8.1-6.4,11.2c-0.5,0.8-0.2,1.9,0.6,2.4c0.1,0.1,0.3,0.1,0.4,0.2l0,0.1
			l0,0.1c0.1,0.8,0.3,1.4,0.5,1.9c0.2,0.6,0.6,1.2,1,1.8c0.7,1,1.4,1.8,2.2,2.5c0.9,0.8,1.9,1.5,2.7,2c0.9,0.6,1.8,1.1,2.6,1.5
			c1,0.5,2,0.9,3.3,1.4c1.2,0.5,2.6,0.9,3.8,1.2c0.7,0.2,1.4,0.4,2.1,0.6c0.8,0.2,1.5,0.5,2.2,0.8c0.4,0.2,0.9,0.4,1.3,0.6
			c1.4,0.6,2.8,1.2,4.3,1.8c1.7,0.6,3.8,1.4,6.1,1.9c2.2,0.5,4.4,1,6.4,1.4c2.2,0.5,4.4,0.7,6.6,1c2.2,0.2,4.3,0.4,6.3,0.5
			c1.4,0.1,3,0.1,4.7,0.1c0.6,0,1.2,0,1.8,0c4.6,0,8.7-0.4,12.8-0.9c1.8-0.3,3.6-0.6,5.3-0.9l0.9-0.2c0.4-0.1,0.8-0.1,1.2-0.2
			c0.6-0.1,1.3-0.2,1.9-0.4c0.6-0.1,1.1-0.3,1.6-0.4c0.5-0.1,0.9-0.3,1.4-0.5l0.1,0c0.8-0.3,2-0.8,3-1.3c0.7-0.3,1.4-0.7,2-1.1
			c0.8-0.5,1.6-1.1,2.4-1.7l0.2-0.1c0.8-0.7,1.6-1.4,2.3-2.1c0.1-0.1,0.3-0.3,0.4-0.4c0.1-0.1,0.1-0.1,0.2-0.2
			c0.1-0.2,0.3-0.3,0.4-0.5c0.4-0.4,0.7-0.9,1-1.3c1.3-1.6,2.5-3.4,3.7-5.4c0.5-0.8,0.9-1.6,1.4-2.5c0.5-0.8,0.9-1.7,1.4-2.6
			c0.6-1.3,1.3-2.7,1.9-4c0.3-0.6,0.5-1.2,0.8-1.8c0.5-1,0.9-2,1.4-3c0.4-1,0.9-2,1.3-2.9c2.1-4.6,3.8-8.3,5.4-11.8
			c0.7-1.5,1.4-3,2.1-4.5l0.6-1.3c0.7-1.6,1.7-3.7,2.5-5.9l0-0.1c0.4-1,0.8-2,1.3-3.1c1.5-3.5,3.2-7.3,5.2-11.5
			c1.2-2.5,2.5-5,3.8-7.5c0.6-1.2,1.3-2.5,1.9-3.7c0.6-1.1,1.2-2.3,1.7-3.4c0.4-0.8,0.8-1.5,1.2-2.3c-0.8,0.2-1.7,0.1-2.5-0.1
			c-0.4-0.2-0.9-0.4-1.3-0.6c-0.3-0.1-0.6-0.3-0.9-0.5c-0.5-0.4-1-0.8-1.4-1.1c-1.6-1.2-3.2-2.4-4.7-3.7c-1.4-1.2-2.8-2.4-4.2-3.6
			c-0.7-0.5-1.5-1.1-2.2-1.6c-1.2-0.8-2.4-1.6-3.7-2.4c0,0-0.1,0-0.1,0c0,0-0.1,0-0.2,0c-0.2,0.1-0.5,0.2-0.8,0.3
			c-0.7,0.3-1.6,0.4-2.3,0.3c-1.1,0-2.1-0.3-3.1-0.8c-0.5-0.3-1.1-0.7-1.4-1.1c-0.6-0.5-1.1-1.1-1.4-1.8c-0.4-0.7-0.7-1.4-1-2.1
			c-0.1-0.4-0.3-0.7-0.3-1.1c-0.1-0.9-0.3-1.8-0.2-2.7c0-0.1,0-0.2,0-0.3c-0.2-0.2-0.4-0.4-0.6-0.6c-0.3-0.2-0.5-0.4-0.8-0.6
			c-0.5-0.5-1-1-1.4-1.5c-0.4-0.4-0.8-0.7-1.2-1.1c-0.1-0.1-0.1-0.1-0.2-0.2c-0.5-0.4-0.9-0.9-1.2-1.4c-0.2-0.4-0.4-0.9-0.6-1.3
			c-0.1-0.4-0.2-0.7-0.2-1.1C96,169.7,95.8,170,95.5,170.4"/>
		<path id="Fill-815-Copy" class="st2" d="M192.1,67.4c-0.3,0.2-0.6,0.4-0.8,0.6c-0.2,0.2-0.5,0.4-0.7,0.6c-0.2,0.2-0.3,0.3-0.4,0.6
			c-0.1,0.1-0.2,0.2-0.3,0.3c-0.1,0.1-0.2,0.3-0.4,0.5c0,0,0,0,0,0.1c-0.1,0.2-0.2,0.4-0.3,0.6c-0.1,0.1-0.2,0.1-0.2,0.2
			c-0.1,0.1-0.2,0.3-0.3,0.4l0,0c-0.1,0.1-0.1,0.1-0.2,0.2c-0.1,0.1-0.2,0.2-0.2,0.3c-0.2,0.2-0.3,0.4-0.5,0.6
			c-0.3,0.5-0.6,1.1-0.9,1.7c-0.1,0.2-0.2,0.4-0.2,0.6c-0.2,0.4-0.1,0.9,0,1.3c0,0.1,0.1,0.2,0.1,0.3c-0.2,0.3-0.3,0.7-0.5,1
			c-0.2,0.4-0.3,0.8-0.2,1.2c0.1,0.4,0.4,0.7,0.7,1c0.2,0.1,0.4,0.2,0.6,0.2c0,0,0,0.1,0,0.1c-0.2,0.2-0.3,0.5-0.4,0.7
			c-0.2,0.5-0.2,1.1,0,1.6c0.1,0.2,0.2,0.5,0.3,0.7c0.1,0.3,0.2,0.7,0.4,1c0.2,0.5,0.7,0.9,1.3,1.1c0.5,0.1,0.9,0.2,1.4,0
			c0.4-0.1,0.8-0.3,1.2-0.5c0.5-0.3,1-0.7,1.4-1.1c0.2-0.2,0.4-0.4,0.6-0.6c0.2-0.2,0.3-0.4,0.5-0.5c0,0,0,0,0,0c0,0,0,0,0.1-0.1
			c0,0,0,0,0,0c0.1-0.1,0.2-0.2,0.3-0.4c0.2-0.3,0.2-0.6,0.2-0.9c0-0.2,0-0.4-0.1-0.5c0.5,0,1-0.2,1.4-0.5c0.2-0.2,0.5-0.5,0.6-0.8
			c0.1-0.2,0.2-0.4,0.2-0.6c0-0.2,0.1-0.3,0.1-0.5c0-0.1,0-0.2,0.1-0.4c0.1-0.2,0.1-0.3,0.2-0.5c0.1-0.3,0.1-0.5,0.2-0.8
			c0.1-0.4,0.2-0.7,0.2-1.1c0.1-0.4,0.2-0.9,0.2-1.3c0-0.1,0-0.3,0.1-0.4c0.1-0.3,0.1-0.7,0.2-1c0.1-0.4,0.1-0.7,0.2-1.1
			c0-0.2,0.1-0.5,0.1-0.7c0-0.4-0.1-0.8-0.2-1.2c-0.1-0.6-0.7-1.1-1.2-1.2c-0.4-0.1-0.7-0.1-1,0c-0.1-0.2-0.1-0.3-0.2-0.5
			c-0.1-0.3-0.4-0.6-0.7-0.7c-0.2-0.1-0.4-0.2-0.7-0.3c-0.2,0-0.3-0.1-0.5-0.1C193.2,66.8,192.6,67.1,192.1,67.4"/>
		<path id="Fill-817-Copy" class="st3" d="M118.1,35.7c0.2,0,0.3,0,0.4-0.1c0.4-0.1,0.8-0.4,1-0.8c0.2-0.4,0.3-0.8,0.2-1.3
			c-0.1-0.2-0.1-0.5-0.2-0.7c0-0.1,0-0.2,0-0.2c0,0,0-0.1,0-0.1c0.3-0.6,0.6-1.2,1-1.8c0.1-0.2,0.3-0.5,0.4-0.7
			c0.2-0.3,0.3-0.6,0.5-0.9l0.1-0.3l0.1-0.1c0.3-0.5,0.5-1,0.9-1.5c0.4-0.4,0.7-0.8,1.1-1.1c0.9-0.6,1.8-1,2.8-1.5
			c2.2-0.9,4.5-1.6,6.7-2.1c0.9-0.2,1.8-0.3,2.6-0.5c0.3,0,0.5-0.1,0.8-0.1l0.6-0.1c0.8-0.1,1.7-0.3,2.6-0.4l0.7-0.1l0.2,0
			c0.8-0.1,1.7-0.2,2.5-0.3c1.2-0.1,2.4-0.2,3.7-0.3c2.2-0.1,4.5-0.2,6.8-0.2h0.2c0.9,0,1.8,0,2.6,0.1l0,0c0.3,0,0.6,0,0.8,0
			c0.4,0,0.7,0,1.1,0l0.1,0c0.7,0,1.4,0,2.2,0.1c2.2,0.1,4.6,0.3,7.3,0.6c0.3,0,0.6,0.1,1,0.1l0.2,0l0.2,0l0.1,0
			c0.4,0.1,0.8,0.1,1.2,0.2c0.7,0.1,1.3,0.3,1.9,0.4l0.8,0.2c0.9,0.2,1.8,0.4,2.7,0.6c0.6,0.1,1.2,0.3,1.8,0.4
			c0.5,0.1,1,0.2,1.5,0.3c0.4,0.1,0.8,0.2,1.1,0.2c0.7,0.1,1.6,0.3,2.4,0.5c1,0.3,1.9,0.5,2.8,0.8c0.7,0.2,1.4,0.5,2.1,0.8l0.2,0.1
			c0.6,0.3,1.3,0.6,2,1c0.7,0.4,1.3,0.8,1.9,1.2c0.3,0.3,0.7,0.6,1.1,1c0.2,0.3,0.4,0.6,0.5,0.9c0.1,0.4,0.2,0.8,0.3,1.3
			c0.1,1.1,0.1,2.3,0,3.4l0,0c0,0.7-0.1,1.5,0,2.2c0,1.2,0.1,2.4,0.4,3.4c0.2,0.8,0.5,1.6,0.9,2.4c0.1,0.1,0.1,0.3,0.2,0.4
			c0.2,0.4,0.3,0.8,0.4,1.1c0.1,0.4,0.2,0.7,0.2,1.1c0,0.5,0.1,0.9,0.1,1.4c0,0.3,0,0.7-0.1,1c-0.3,1.9-0.7,3.6-1.3,5.2
			c-0.9,1.8-2,3.7-3.6,5.8c-0.7,0.9-1.5,1.8-2.2,2.6l-0.2,0.2c-0.3,0.3-0.6,0.7-0.9,1c-0.2,0.2-0.4,0.4-0.5,0.6l0,0.1
			c-0.3,0.4-0.6,0.7-0.8,1.1c-0.3,0.6-0.4,1.4-0.5,2c-0.6,0.7-1,1.2-1.5,1.6c-0.6,0.6-1.3,1.2-2.1,1.9c-0.7,0.6-1.5,1.1-2.3,1.6
			l-0.4,0.3c-0.9,0.6-1.9,1.3-2.9,2c-0.9,0.6-1.8,1.2-2.7,1.8c-1.1,0.7-2.1,1.4-3.2,2.1c-0.8,0.5-1.6,1.1-2.5,1.6
			c-1.1,0.7-2.2,1.5-3.4,2.2c-0.5,0.4-1.1,0.7-1.6,1.1c-0.5,0.3-1,0.6-1.4,1c-0.5,0.3-1,0.7-1.4,1c-0.5,0.3-0.9,0.6-1.4,1
			c-0.6,0.4-1.1,0.7-1.7,1.1c-0.2,0.1-0.4,0.3-0.6,0.4c-0.5,0.3-1.1,0.7-1.6,1.1c-0.1-0.1-0.2-0.2-0.3-0.3c-0.5-0.5-1-0.9-1.5-1.3
			c-1-0.8-2.3-1.3-3.4-1.7c-2.4-0.9-5-1.2-7.3-1.4c-1.2-0.1-2.4-0.2-3.5-0.2c-1,0-1.8-0.1-2.5-0.1c-0.4,0-0.7,0-1.1,0
			c-1.1,0-2.3,0.1-3.4,0.2c-1,0.1-2.1,0.3-3.1,0.5c-0.2,0-0.5,0.1-0.7,0.1c-0.8,0.1-1.5,0.3-2.1,0.4l-0.2,0c-0.5,0.1-1,0.2-1.5,0.3
			c-0.1,0-0.2,0-0.3,0c-0.1-0.1-0.2-0.2-0.2-0.3l-0.1-0.1c-0.1-0.1-0.3-0.3-0.4-0.4l-0.2-0.2c-0.3-0.3-0.6-0.6-0.8-0.9l-0.3-0.3
			c-0.8-0.9-1.6-1.7-2.4-2.6c-0.2-0.2-0.3-0.3-0.5-0.5c-0.6-0.6-1.3-1.3-1.9-1.9c-0.8-0.7-1.6-1.5-2.4-2.3c-0.4-0.4-0.8-0.8-1.2-1.3
			l-0.2-0.2l-0.2-0.2c-0.2-0.2-0.4-0.4-0.5-0.5l-0.1-0.1c0-0.3,0.1-0.6,0.1-0.9l0-0.1c0.3-2.3,0.6-4.6,0.9-6.8l0-0.1l0.1-1.1
			c0.1-0.9,0.3-1.9,0.5-2.8l0.1-0.4c0.2-1.1,0.4-2.3,0.6-3.7c0.2-1.3,0.4-2.6,0.6-3.8l0,0c0.2-1,0.4-2,0.5-3.1
			c0.1-0.8,0.2-1.5,0.3-2.2l0-0.3c0.3-2.2,0.6-4.4,1-6.6l0-0.3c0.3-1.8,0.5-3.4,0.8-5.1C118,35.7,118.1,35.7,118.1,35.7 M159.7,0
			c-1.5,0-3.1,0-5,0.1c-2.6,0.1-5.1,0.4-7.5,1c-1,0.2-2,0.5-2.9,0.8l0,0l-0.5,0.2c-0.3,0.1-0.6,0.2-0.9,0.3l-0.1,0
			c-0.2,0.1-0.4,0.1-0.6,0.2c-0.5,0.2-1.1,0.3-1.6,0.6c-0.7,0.3-1.4,0.6-2.1,0.9c-0.5,0.2-1.1,0.5-1.7,0.8c-1.1,0.5-2.2,1.1-3.1,1.6
			l0,0c-2,1.1-4,2.4-5.9,3.8l-0.2,0.2c-0.4,0.3-1,0.7-1.4,1.1c-0.5,0.4-1,0.8-1.5,1.3c-0.9,0.8-1.7,1.6-2.3,2.4
			c-1,1.1-1.8,2.2-2.5,3.2c-0.7,1-1.4,2-1.9,2.8c-0.8,1.2-1.4,2.2-1.9,3.1c-0.3,0.6-0.6,1.2-0.8,1.8l-0.3,0.9
			c-0.2,0.6-0.4,1.2-0.5,2.1c-0.3,2.1-0.5,4.1-0.7,6.3c0,0.5,0.2,1,0.5,1.2c0.1,0.1,0.2,0.2,0.3,0.2c-0.2,1.5-0.5,3-0.7,4.5
			c-0.1,0.8-0.2,1.5-0.4,2.3l-0.1,0.7l0,0c-0.1,0.9-0.3,1.8-0.4,2.7c-0.2,1.2-0.3,2.3-0.5,3.5c-0.1,0.4-0.2,0.8-0.2,1.3l0,0.1
			c-0.1,0.7-0.3,1.4-0.4,2.1c-0.2,1.2-0.4,2.4-0.6,3.6c-0.1,0.9-0.3,1.8-0.4,2.6c-0.2,1.2-0.4,2.4-0.6,3.7c-0.1,0.6-0.2,1.3-0.2,1.9
			l0,0.1l0,0.3c-0.1,1.1-0.3,2.3-0.4,3.4l-0.1,0.8l0,0c-0.1,0.6-0.2,1.2-0.2,1.8c-0.1,0.1-0.1,0.1-0.1,0.2l0,0
			c-0.1,0.3-0.3,0.6-0.3,0.9c0,0.2,0.1,0.6,0.2,0.9c-0.1,0.8-0.1,1.6-0.2,2.3l0,0.2l0,0.1c-0.1,1-0.1,1.9-0.2,2.9l0,0.5l0,0.9l0,0.9
			l0,0.4c0,0.4,0,0.8-0.1,1.2c-0.1,0.5-0.1,1-0.2,1.5c-0.1,0.6-0.1,1.2-0.2,1.8c0,0.2,0,0.5-0.1,0.7c0,0.6,0.1,1.2,0.4,1.6
			c0.1,0.2,0.3,0.4,0.5,0.6l0.1,0.1c0,0,0.1,0.1,0.1,0.1c0.1,0.2,0.3,0.3,0.4,0.5c0.3,0.4,0.7,0.8,1,1.2c0.1,0.1,0.2,0.1,0.2,0.2
			c0.1,0.1,0.2,0.2,0.3,0.3c0.1,0.1,0.2,0.2,0.4,0.4c0.6,0.8,1.1,1.6,1.6,2.4l0.1,0.1c0.3,0.4,0.5,0.9,0.8,1.3
			c0.2,0.4,0.4,0.8,0.5,1.2l0.1,0.2c0.1,0.2,0.2,0.4,0.3,0.6l0.1,0.3c0.3,0.8,0.7,1.6,1,2.4c0.4,0.9,0.9,1.9,1.4,3.1
			c0.3,0.7,0.5,1.2,0.6,1.7c0.1,0.2,0.1,0.4,0.2,0.6l0,0.2c0.1,0.4,0.2,0.9,0.4,1.3c0.2,0.6,0.4,1.2,0.6,1.8
			c0.1,0.1,0.1,0.3,0.1,0.4c0.1,0.2,0.1,0.3,0.2,0.5c0.2,0.6,0.4,1,0.7,1.4c0.1,0.2,0.3,0.4,0.6,0.6c0,0,0.1,0,0.1,0.1
			c0,0.1,0,0.2,0.1,0.3c0.2,0.6,0.5,1.1,1,1.4c0.3,0.2,0.7,0.3,1.2,0.3c0.2,0,0.4,0,0.6-0.1c0.4-0.1,0.7-0.2,1-0.4
			c0.5-0.2,0.9-0.5,1.4-0.8l0.2-0.1c0.5-0.3,0.9-0.6,1.4-0.8c1.1-0.7,2.2-1.4,3.3-2.1l0.2-0.1c0.8-0.5,1.6-1,2.5-1.6l0.6-0.4
			c0.7-0.5,1.6-1,2.4-1.5c0.7-0.4,1.5-0.9,2.2-1.3l0.1-0.1l0.6-0.4c0.3-0.2,0.6-0.4,0.9-0.5l0.2-0.1c0.6-0.4,1.3-0.8,2-1.2
			c0.8-0.5,1.7-0.9,2.4-1.3l0.7-0.3c0.3-0.2,0.7-0.3,1-0.5l0.1,0c0.7-0.3,1.3-0.7,2-1c0.3-0.2,0.6-0.3,0.9-0.5
			c0.7-0.3,1.5-0.7,2.3-1.1c0.4-0.2,0.8-0.4,1.2-0.6l0,0c0.6-0.3,1.3-0.7,1.9-1c1-0.5,2-1,3.1-1.5c1-0.5,2.2-1.1,3.3-1.5
			c0.9-0.3,1.8-0.6,2.7-0.9l0.4-0.1c1.2-0.4,2.3-0.7,3.3-1c0.8-0.2,1.6-0.5,2.4-0.7l0.1,0c1.4-0.4,2.9-0.9,4.3-1.2
			c0.9-0.2,2-0.5,3.2-0.9c0.5-0.1,1-0.3,1.5-0.4l0,0c0.6-0.2,1.2-0.4,1.8-0.5c0.7-0.2,1.4-0.4,2.1-0.5l0.1,0c0.3-0.1,0.7-0.2,1-0.3
			c0.7-0.2,1.3-0.4,1.8-0.6c0.1-0.1,0.2-0.1,0.3-0.2c0.2-0.1,0.3-0.2,0.5-0.4c0.1-0.1,0.2-0.2,0.3-0.3l0,0c0,0,0.1-0.1,0.1-0.1
			c0.1-0.2,0.2-0.4,0.3-0.8c0.1-0.2,0.1-0.5,0.1-0.7l0-0.1l0-0.3c0-0.2,0-0.3,0-0.4c0-0.3,0.1-0.6,0.2-0.9l0-0.1
			c0.1-0.5,0.2-1,0.2-1.5c0.1-0.7,0.2-1.5,0.3-2.2c0-0.3,0.1-0.6,0.1-0.9c0.1-0.4,0.1-0.7,0.2-1.1l0,0c0.1-0.6,0.2-1.2,0.3-1.8
			c0.1-0.6,0.1-1.3,0.1-1.9c0-0.2,0-0.4,0-0.6V72c0-1,0-2.2,0-3.3c0.1,0,0.2,0,0.3,0c0.3,0,0.6-0.1,0.9-0.2l0,0l0,0
			c0.1-0.1,0.3-0.1,0.4-0.2c0.1-0.1,0.2-0.1,0.3-0.2c0.1-0.1,0.3-0.1,0.4-0.2l0.2-0.1c0.3-0.2,0.6-0.3,0.9-0.5l0,0l0.2-0.1
			c0.1-0.1,0.3-0.1,0.4-0.2c0.3-0.2,0.6-0.3,0.9-0.5c0.3-0.2,0.7-0.4,1.1-0.6c0.3-0.1,0.5-0.2,0.8-0.2c0.3,0,0.5,0,0.8,0
			c0.2,0,0.5,0,0.7,0c0.3,0.1,0.6,0.1,0.9,0.2c0.2,0.1,0.3,0.1,0.5,0.2c0.1,0,0.2,0.1,0.3,0.1c0.2,0.1,0.5,0.2,0.7,0.3
			c0.2,0,0.3,0.1,0.5,0.1c0.2,0,0.4,0,0.7-0.1c0.2,0,0.5-0.2,0.6-0.3c0.2-0.2,0.4-0.3,0.6-0.5c0.1-0.1,0.1-0.2,0.2-0.3l0-0.1
			c0.3-0.3,0.5-0.7,0.7-1c0.6-0.8,1.1-1.7,1.8-2.8c0.6-1.1,1.2-2.1,1.7-3.1c0.4-0.8,0.8-1.6,1.1-2.4l0,0l0.3-0.6
			c1.2-2.5,2.1-4.7,2.8-6.7c0.7-2,1.3-4.2,1.7-7c0.2-1.1,0.3-2.3,0.3-3.7c0-1.3-0.1-2.5-0.2-3.6c-0.2-1.5-0.4-2.7-0.6-3.8
			c-0.3-1.1-0.7-2.5-1.3-3.7c-0.5-1.1-1-2.1-1.5-3.1c-0.5-0.9-1.1-1.9-1.9-3.1c-1.1-1.7-2.7-3.9-4.6-5.7c-0.9-0.8-1.9-1.7-3-2.5
			c-1.1-0.8-2.1-1.4-3.1-2.1c-0.8-0.5-1.6-0.8-2.4-1.2l-0.1,0c-0.2-0.1-0.4-0.1-0.5-0.2c-1.1-0.5-2.1-0.9-3.3-1.5
			c-1.1-0.5-2.1-1-3.1-1.4l-0.2-0.1l0,0c-1.1-0.5-2.4-1-3.6-1.6c-1-0.4-2.1-0.7-3.1-1l-0.2,0c-0.2-0.1-0.4-0.1-0.6-0.2
			c-0.9-0.3-1.8-0.5-2.8-0.8c-0.9-0.2-1.8-0.4-2.7-0.6l-0.1,0l-0.7-0.1c-1.2-0.2-2.4-0.5-3.6-0.8l-0.1,0l0,0
			c-1.1-0.2-2.2-0.4-3.7-0.6L165,0.3c-1-0.1-2-0.2-3.1-0.3C161.2,0,160.5,0,159.7,0"/>
		<path id="Fill-819-Copy" class="st3" d="M182.4,94.4c-0.4,0-0.8,0.1-1.2,0.3c-0.3,0.1-0.6,0.3-0.8,0.5c-0.2,0.1-0.5,0.3-0.8,0.4
			c-0.2,0.1-0.3,0.2-0.5,0.3c-0.3,0.2-0.6,0.3-1,0.5c-0.4,0.2-0.8,0.4-1.3,0.6c-0.6,0.3-1.2,0.6-1.8,0.9c-1.2,0.6-2.4,1.2-3.5,1.8
			c-0.6,0.3-1.2,0.6-1.9,1c-1.9,1-3.7,2.1-5.5,3.1c-0.1,0-0.2-0.1-0.4-0.1c-0.1-0.1-0.3-0.1-0.4-0.2c-0.1,0-0.3-0.1-0.4-0.1
			c-0.3,0-0.6,0.1-0.9,0.2c-0.7,0.4-1,1.2-0.8,1.9c0.1,0.3,0.2,0.6,0.5,0.8c0.2,0.2,0.4,0.3,0.6,0.4c0.3,0.1,0.6,0.2,0.9,0.3
			c0.2,0.1,0.4,0.1,0.6,0.2c0.1,0,0.3,0.1,0.4,0.1c0.5,0.1,1.1,0.3,1.7,0.5c0.7,0.3,1.4,0.6,2.1,1.1c0.6,0.5,1.1,1,1.5,1.6
			c0.6,0.8,1.1,1.6,1.5,2.5c0.2,0.5,0.5,1,0.7,1.4c0.3,0.4,0.7,1,1.2,1.5c0.2,0.2,0.5,0.4,0.7,0.6c0.2,0.1,0.3,0.3,0.5,0.4
			c0.5,0.4,0.9,0.8,1.3,1.2c0.1,0.1,0.1,0.1,0.2,0.2c0.2,0.2,0.3,0.3,0.5,0.5c0.3,0.2,0.5,0.3,0.8,0.5c0.2,0.1,0.4,0.1,0.6,0.1
			c0,0,0,0,0,0c0.2,0,0.6-0.1,0.8-0.2c0.3-0.2,0.5-0.4,0.7-0.7c0.2-0.3,0.4-0.7,0.5-1l0-0.1c0.1-0.2,0.2-0.5,0.3-0.8
			c0.3-0.9,0.5-1.8,0.7-2.7l0.1-0.6c0.3-1,0.5-2.1,0.8-3.3c0.1-0.5,0.2-1,0.3-1.5c0.1-0.6,0.3-1.2,0.4-1.8c0.1-0.5,0.2-1,0.3-1.5
			c0.1-0.6,0.3-1.2,0.4-1.8l0.1-0.3c0.2-1,0.5-2.1,0.7-3.1l0-0.1c0.1-0.7,0.2-1.4,0.3-2c0.1-0.7,0.1-1.3,0-1.9
			c-0.1-0.3-0.1-0.5-0.2-0.7c-0.2-0.3-0.4-0.5-0.7-0.7C183.2,94.6,182.8,94.4,182.4,94.4"/>
		<path id="Fill-821-Copy" class="st3" d="M179.8,96.1c-0.3,0-0.5,0-0.8,0.1c-0.2,0.1-0.4,0.1-0.6,0.2c-0.3,0.1-0.5,0.3-0.8,0.4
			c-0.5,0.3-1,0.5-1.5,0.8c-1,0.6-2.1,1.1-3.1,1.7c-2,1.1-4,2.3-6.1,3.3c-0.3,0.2-0.7,0.3-1,0.5c-1.7,0.7-3.5,1.3-5.3,1.9
			c-0.5,0.2-0.9,0.7-0.7,1.2c0.1,0.5,0.7,0.9,1.2,0.7c1.2-0.4,2.5-0.8,3.7-1.2c0.6-0.2,1.1-0.4,1.7-0.6c0.5-0.2,1-0.4,1.5-0.6
			c1.2-0.5,2.4-1,3.5-1.6c1.1-0.5,2.1-1,3.2-1.5c1-0.5,1.9-0.9,2.9-1.4c0.5-0.2,0.9-0.5,1.4-0.7c0.2-0.1,0.5-0.2,0.7-0.4
			c0.3-0.2,0.6-0.5,0.9-0.7c0.3-0.3,0.4-0.8,0.3-1.2C180.9,96.5,180.4,96.1,179.8,96.1C179.8,96.1,179.8,96.1,179.8,96.1"/>
		<path id="Fill-823-Copy" class="st4" d="M108.5,89.6c-0.2,0.1-0.5,0.2-0.6,0.5c-0.1,0.3-0.3,0.6-0.3,0.9c-0.1,0.2-0.1,0.5-0.1,0.7
			c-0.1,0.5-0.1,1.1-0.2,1.6c0,0.5,0,1,0,1.4c0,0.5,0.1,0.9,0.1,1.4c0.1,0.9,0.2,1.9,0.3,2.8c0.1,1,0.2,1.9,0.3,2.9
			c0.2,1.9,0.5,3.8,0.7,5.7c0.2,2,0.4,3.9,0.6,5.9c0.1,0.9,0.2,1.8,0.3,2.7c0.1,1,0.2,2,0.3,3.1c0.1,0.9,0.2,1.9,0.3,2.8
			c0.1,0.5,0.1,1,0.1,1.5c0,0.5,0,1,0.1,1.5c0.1,1.9,0.1,3.8,0,5.7c0,0.9,0,1.9-0.1,2.8c-0.1,0.9-0.1,1.8-0.2,2.7
			c-0.1,0.9-0.3,1.8-0.5,2.7c-0.2,1-0.5,2-0.7,2.9c-0.2,0.9-0.5,1.8-0.7,2.7c-0.3,1-0.5,1.9-0.8,2.9c-0.8,2.6-1.6,5.2-2.6,7.8
			c-0.5,1.1-0.9,2.2-1.5,3.2c-0.6,1.2-1.3,2.4-1.9,3.6c-0.2,0.3-0.1,0.8,0.3,1c0.3,0.2,0.8,0.1,1-0.3c0.5-0.9,1-1.8,1.5-2.8
			c0.5-0.9,1-1.7,1.4-2.6c0.4-0.8,0.8-1.7,1.2-2.5c0.4-1,0.8-1.9,1.2-2.9c0.3-0.9,0.6-1.7,0.9-2.6c0.3-0.9,0.6-1.8,0.9-2.8
			c0.3-0.9,0.6-1.9,0.8-2.8c0.2-0.9,0.5-1.9,0.7-2.8c0.2-0.9,0.5-1.9,0.6-2.8c0.2-1,0.4-2.1,0.4-3.1c0.1-1,0.1-1.9,0.2-2.9
			c0-1,0-2,0.1-3c0-1,0-2,0-2.9c0-0.9,0-1.9-0.1-2.8c-0.1-1-0.2-2-0.3-3c-0.1-0.9-0.2-1.9-0.3-2.8c-0.4-3.9-0.7-7.8-1.2-11.6
			c-0.2-1.9-0.5-3.9-0.7-5.8c-0.1-0.9-0.1-1.8-0.2-2.7c-0.1-1-0.2-1.9-0.3-2.9c0-0.7,0-1.4,0-2c0-0.2,0.1-0.5,0.1-0.7
			c0.1-0.3,0.1-0.6,0.2-0.9c0.1-0.4-0.1-0.9-0.5-1.2c-0.2-0.1-0.3-0.1-0.5-0.1C108.7,89.6,108.6,89.6,108.5,89.6"/>
		<path id="Fill-825-Copy" class="st4" d="M107.8,90.1c-0.3,0.5-0.1,1.2,0.4,1.5c0.3,0.2,0.5,0.3,0.8,0.5c0.5,0.4,1,0.8,1.5,1.3
			c0.3,0.2,0.5,0.5,0.8,0.8c0.2,0.3,0.5,0.5,0.7,0.8c0.3,0.4,0.5,0.7,0.8,1.1c0.3,0.4,0.5,0.8,0.7,1.2c0.5,0.9,1,1.8,1.4,2.8
			c0.4,0.9,0.8,1.8,1.3,2.7c0.4,0.9,0.9,1.8,1.3,2.7c0.3,0.8,0.6,1.6,0.9,2.4c0.3,0.9,0.6,1.8,1,2.7c0.3,0.8,0.5,1.7,0.8,2.5
			c0.3,1,0.6,1.9,1,2.8c0.1,0.2,0.2,0.4,0.4,0.5c0.2,0.1,0.5,0.2,0.7,0.1c0.5-0.1,0.8-0.6,0.6-1.1c-0.1-0.6-0.2-1.2-0.4-1.7
			c-0.1-0.5-0.3-0.9-0.4-1.4c-0.2-1-0.5-1.9-0.8-2.9c-0.3-1-0.7-1.9-1-2.9c-0.4-1-0.8-2-1.2-3c-0.4-1-0.9-2-1.4-2.9
			c-0.4-0.9-0.9-1.9-1.4-2.8c-0.5-0.9-1-1.8-1.5-2.7c-0.3-0.4-0.5-0.8-0.9-1.2c-0.3-0.4-0.7-0.9-1.1-1.3c-1-1-2.1-2-3.4-2.8
			c-0.2-0.1-0.4-0.1-0.5-0.1C108.4,89.6,108,89.8,107.8,90.1"/>
		<path id="Fill-827-Copy" class="st4" d="M187.7,87C187.7,87,187.7,87.1,187.7,87C187.7,87.1,187.7,87,187.7,87 M186.1,87
			C186.1,87,186.1,87,186.1,87C186.1,87,186.1,87,186.1,87 M187.5,86.9C187.5,86.9,187.5,86.9,187.5,86.9
			C187.5,86.9,187.5,86.9,187.5,86.9 M186.5,84.7c-0.1,0-0.2,0-0.4,0c-0.1,0-0.1,0-0.2,0c0,0,0,0,0,0c0,0,0,0,0,0
			c-0.1,0-0.2,0-0.3,0c-0.3,0-0.5,0.1-0.8,0.1c-0.5,0.1-1,0.2-1.4,0.3c-1,0.3-2.1,0.6-3.1,0.9c-1,0.3-2,0.7-3,1c-1,0.3-2,0.7-3.1,1
			c-1,0.3-2.1,0.7-3.1,1c-1,0.3-1.9,0.7-2.9,1c-2,0.8-4,1.5-6.1,2.3c-1,0.4-2.1,0.8-3.1,1.2c-1,0.4-2.1,0.9-3.1,1.3
			c-2.1,0.9-4.1,1.8-6.1,2.8c-1,0.5-1.9,0.9-2.9,1.4c-0.9,0.5-1.9,1-2.7,1.5c-0.9,0.6-1.8,1.1-2.8,1.7c-0.9,0.5-1.9,1.1-2.8,1.6
			c-0.9,0.6-1.9,1.2-2.8,1.7c-0.5,0.3-1,0.6-1.5,1c-0.5,0.3-0.9,0.6-1.4,0.9c-0.9,0.6-1.7,1.2-2.6,1.8c-0.9,0.6-1.7,1.2-2.6,1.8
			c-0.7,0.5-1.4,0.9-2,1.4c-0.6,0.5-1.3,1-1.9,1.5c-0.3,0.2-0.7,0.5-1,0.7c-0.4,0.2-0.7,0.5-1.1,0.7c-0.2,0.1-0.4,0.3-0.6,0.4
			c-0.2,0.2-0.5,0.3-0.7,0.5c-0.4,0.3-0.8,0.7-1.2,1c-0.2,0.2-0.3,0.5-0.3,0.8c0,0.3,0.1,0.6,0.3,0.8c0.2,0.2,0.5,0.3,0.8,0.3
			c0.3,0,0.5-0.1,0.8-0.3c0.4-0.3,0.8-0.7,1.1-1c0.3-0.3,0.7-0.5,1-0.8c0.5-0.3,1-0.7,1.4-1c0.9-0.6,1.7-1.3,2.6-1.9
			c1.7-1.3,3.6-2.4,5.3-3.7c0.9-0.6,1.8-1.3,2.8-1.9c0.9-0.6,1.9-1.2,2.8-1.8c0.9-0.6,1.9-1.2,2.9-1.7c0.9-0.5,1.9-1.1,2.8-1.6
			c0.9-0.5,1.7-1.1,2.6-1.6c1-0.5,2-1.1,2.9-1.6c2-1,4-1.9,6-2.8c1.7-0.7,3.3-1.4,5-2.1c1.9-0.8,3.9-1.5,5.9-2.3c1-0.4,2-0.8,3-1.1
			c1-0.4,2-0.7,3.1-1.1c2-0.7,4.1-1.3,6.1-2c1-0.3,2-0.7,2.9-1c1-0.3,2-0.6,3.1-0.9c0.7-0.2,1.3-0.3,2-0.4c0.1,0,0.2,0,0.2,0
			c0,0,0,0,0,0c0.1,0,0.2,0,0.4,0c0.2,0,0.4,0,0.5,0c0.1,0,0.1,0,0.2,0c0,0,0,0,0.1,0c0,0,0,0.1,0,0.1c0,0.1,0,0.2,0,0.3
			c0,0.2-0.1,0.4-0.2,0.6c-0.2,0.4-0.5,0.8-0.7,1.2c-0.7,0.9-1.6,1.7-2.5,2.5c-0.8,0.6-1.6,1.1-2.5,1.6c-0.9,0.5-1.9,1.1-2.8,1.6
			c-1.8,1.1-3.6,2.1-5.5,3.1c-1.8,1-3.7,1.9-5.6,2.9c-1,0.5-1.9,1-2.8,1.6c-0.4,0.3-0.9,0.5-1.3,0.8c-0.5,0.3-0.9,0.6-1.3,0.9
			c-0.6,0.4-1.2,0.9-1.7,1.5c-0.3,0.3-0.4,0.7-0.1,1.1c0.2,0.4,0.8,0.6,1.3,0.3c0.5-0.3,0.9-0.6,1.4-0.9c0.4-0.3,0.9-0.6,1.3-0.8
			c0.9-0.6,1.8-1.1,2.7-1.6c0.9-0.5,1.8-0.9,2.7-1.4c1-0.5,1.9-1,2.9-1.5c1.9-1,3.7-2,5.5-3c0.9-0.5,1.9-1.1,2.8-1.6
			c0.9-0.5,1.9-1,2.8-1.6c0.9-0.6,1.8-1.2,2.6-2c0.8-0.8,1.6-1.6,2.3-2.5c0.4-0.6,0.7-1.2,0.9-1.8c0.1-0.3,0.1-0.7,0.2-1
			c0-0.4,0-0.7-0.2-1.1c-0.2-0.4-0.4-0.8-0.8-1.1c-0.5-0.3-1-0.5-1.5-0.5c0,0-0.1,0-0.1,0C187,84.7,186.8,84.7,186.5,84.7"/>
		<path id="Fill-829-Copy" class="st4" d="M160.6,104.5c-0.2,0.2-0.3,0.5-0.3,0.8c0,0.3,0.1,0.6,0.3,0.8c0.2,0.2,0.4,0.5,0.7,0.7
			c0.3,0.2,0.6,0.5,0.9,0.6c0.3,0.2,0.5,0.3,0.8,0.5c0.5,0.3,1.1,0.5,1.6,0.8c0.5,0.2,1,0.5,1.5,0.8c0.5,0.3,0.9,0.6,1.3,0.9
			c0.3,0.2,0.5,0.4,0.7,0.6c0.2,0.2,0.5,0.5,0.7,0.7c0.4,0.5,0.7,1,1,1.5c0.3,0.5,0.6,1.1,0.8,1.7c0.3,0.7,0.5,1.4,0.9,2
			c0.2,0.4,0.5,0.7,0.8,1.1c0.2,0.3,0.5,0.5,0.8,0.8c0.5,0.5,1,1,1.5,1.5c0.4,0.5,0.9,0.9,1.3,1.4c0.1,0.2,0.3,0.4,0.4,0.6
			c0.1,0.2,0.2,0.4,0.3,0.7c0.3,0.6,0.5,1.3,0.8,1.9c0.3,0.7,0.6,1.3,0.9,2c0.5,1.2,1.1,2.4,1.6,3.7c0.1,0.3,0.2,0.6,0.3,0.9
			c0.1,0.4,0.2,0.8,0.3,1.2c0.2,0.7,0.3,1.5,0.4,2.2c0.1,0.5,0.1,0.9,0.1,1.4c0,0.3,0,0.6,0,0.8c0,0.2,0,0.5,0,0.7
			c0,0.2-0.1,0.4-0.1,0.6c-0.1,0.3-0.1,0.5-0.2,0.8c-0.1,0.4-0.3,0.9-0.5,1.3c-0.2,0.5-0.5,0.9-0.7,1.4c-0.3,0.5-0.6,0.9-0.9,1.3
			c-1.1,1.4-2.3,2.7-3.5,4c-1.2,1.3-2.5,2.5-3.7,3.7c-1.3,1.3-2.6,2.6-4,3.8c-0.7,0.6-1.4,1.2-2.1,1.8c-0.7,0.6-1.4,1.1-2,1.7
			c-0.7,0.6-1.4,1.2-2.1,1.8c-0.7,0.6-1.4,1.2-2.1,1.8c-0.7,0.6-1.3,1.2-2,1.8c-0.7,0.6-1.4,1.2-2.1,1.9c-0.7,0.6-1.4,1.3-2.1,1.9
			c-0.6,0.6-1.3,1.3-1.9,1.9c-1.3,1.3-2.5,2.7-3.7,4c-1,1.1-2,2.2-2.9,3.4c-1,1.2-1.9,2.4-2.9,3.7c-0.6,0.7-1.1,1.4-1.7,2.2
			c-0.5,0.7-1.1,1.4-1.6,2.2c-0.5,0.8-1,1.5-1.5,2.3c-0.4,0.8-0.8,1.6-1.2,2.5c-0.1,0.2-0.2,0.4-0.2,0.6c-0.1,0.2,0.1,0.5,0.2,0.6
			c0.2,0.1,0.6,0.1,0.7-0.2c0.5-0.9,1-1.8,1.5-2.7c0.3-0.4,0.5-0.8,0.8-1.2c0.3-0.4,0.6-0.8,0.9-1.2c1.1-1.4,2.2-2.8,3.4-4.1
			c0.6-0.7,1.2-1.4,1.8-2.1c0.6-0.6,1.1-1.3,1.7-1.9c1.2-1.3,2.5-2.6,3.8-4c1.3-1.3,2.5-2.7,3.9-4c0.6-0.6,1.3-1.3,2-1.9
			c0.7-0.6,1.4-1.3,2.1-1.9c1.4-1.2,2.7-2.5,4.1-3.7c0.7-0.6,1.4-1.2,2.1-1.7c0.7-0.6,1.4-1.2,2.1-1.7c0.7-0.6,1.4-1.1,2-1.7
			c0.7-0.6,1.4-1.2,2-1.8c0.7-0.6,1.3-1.3,2-1.9c0.7-0.6,1.3-1.3,1.9-1.9c0.6-0.6,1.2-1.2,1.8-1.8c0.6-0.7,1.2-1.3,1.8-2
			c0.6-0.7,1.2-1.4,1.8-2.1c0.6-0.8,1.2-1.5,1.7-2.4c0.5-0.8,0.8-1.7,1.1-2.6c0.3-0.9,0.5-1.8,0.6-2.8c0.1-1,0-1.9-0.2-2.9
			c-0.1-0.9-0.3-1.7-0.5-2.6c-0.1-0.4-0.2-0.9-0.4-1.3c-0.2-0.5-0.4-1-0.6-1.4c-0.4-0.8-0.7-1.6-1.1-2.4c-0.1-0.2-0.2-0.4-0.2-0.6
			c-0.3-0.7-0.6-1.4-0.9-2.1c-0.3-0.8-0.6-1.5-0.9-2.3c-0.2-0.4-0.4-0.8-0.6-1.1c-0.3-0.4-0.6-0.8-0.9-1.1c-0.3-0.3-0.6-0.6-0.9-0.9
			c-0.3-0.3-0.6-0.6-0.8-0.9c-0.3-0.3-0.6-0.6-0.8-0.9c-0.2-0.3-0.5-0.5-0.7-0.8c-0.2-0.2-0.3-0.5-0.5-0.7c-0.1-0.2-0.2-0.5-0.4-0.7
			c-0.2-0.4-0.3-0.8-0.5-1.2c-0.2-0.4-0.4-0.8-0.6-1.2c-0.2-0.4-0.4-0.7-0.7-1.1c-0.3-0.4-0.6-0.8-0.9-1.2c-0.3-0.3-0.6-0.6-0.9-0.9
			c-0.4-0.3-0.8-0.6-1.2-0.9c-0.4-0.3-0.7-0.5-1.1-0.7c-0.4-0.2-0.8-0.4-1.2-0.6c-0.5-0.2-0.9-0.5-1.4-0.7c-0.5-0.3-1.1-0.5-1.6-0.9
			c-0.3-0.2-0.5-0.5-0.7-0.7c-0.2-0.2-0.5-0.3-0.8-0.3C161.1,104.2,160.8,104.3,160.6,104.5"/>
		<path id="Fill-831-Copy" class="st4" d="M74.1,199.1c0,0-0.1,0.1-0.1,0.1C74,199.2,74,199.2,74.1,199.1z M76.1,196.5l-0.1,0.1
			L76.1,196.5z M95.3,169.4c-0.2,0-0.3,0.1-0.5,0.3c-0.4,0.3-0.7,0.7-1,1c-0.3,0.4-0.7,0.9-1,1.3c-0.5,0.8-1.1,1.6-1.6,2.4
			c-0.5,0.8-1.1,1.6-1.6,2.4c-0.5,0.8-1,1.6-1.5,2.4c-1,1.6-2,3.2-3.1,4.7c-1.1,1.6-2.2,3.2-3.3,4.7c-0.9,1.3-1.9,2.7-2.8,4
			c-0.5,0.7-1,1.4-1.5,2.1c-0.5,0.6-1,1.3-1.4,1.9c-0.6,0.8-1.2,1.6-1.9,2.4c-0.2,0.2-0.3,0.4-0.5,0.7c-0.1,0.1-0.1,0.2-0.2,0.3
			c0,0,0,0.1-0.1,0.1c-0.7,0.8-1.3,1.6-2,2.5c-1.2,1.5-2.3,3.1-3.5,4.6c-1.1,1.4-2.2,2.9-3.3,4.3c-0.4,0.5-0.7,0.9-1.1,1.4
			c-0.1,0.1-0.1,0.1-0.2,0.2l-0.5,0.6c-0.1,0.1-0.1,0.1-0.2,0.2c-0.1,0.1-0.2,0.3-0.3,0.4c-0.6,0.8-1.2,1.6-1.8,2.4
			c-1.1,1.5-2.2,3-3.3,4.5c-0.6,0.8-1.2,1.6-1.7,2.4c-0.6,0.8-1.2,1.7-1.8,2.5c-0.5,0.7-1.1,1.4-1.6,2.2c-0.6,0.8-1.2,1.6-1.8,2.5
			c-1.1,1.5-2.2,3-3.3,4.5c-1.1,1.6-2.1,3.2-3.2,4.8c-1,1.6-2.1,3.2-3.1,4.9c-1,1.7-2,3.4-2.9,5.1c-0.4,0.7-0.8,1.5-1.2,2.2
			c-0.4,0.8-0.8,1.6-1.2,2.3c-0.9,1.6-1.8,3.2-2.8,4.7c-0.1,0.2,0,0.5,0.2,0.6c0.2,0.1,0.5,0,0.6-0.2c1.1-1.7,2.2-3.5,3.2-5.2
			c0.5-0.8,0.9-1.6,1.4-2.5c0.5-0.9,1-1.7,1.5-2.6c1-1.6,2-3.3,3-4.9c0.5-0.8,1.1-1.6,1.6-2.4c0.6-0.8,1.1-1.7,1.7-2.5
			c1.4-2.1,2.9-4.1,4.4-6.1c1-1.2,1.9-2.5,2.8-3.7c0.6-0.8,1.2-1.5,1.8-2.2c0.6-0.8,1.2-1.5,1.7-2.3c1.2-1.6,2.3-3.1,3.5-4.6
			c0.2-0.2,0.4-0.5,0.6-0.7c-0.1,0.1-0.1,0.1-0.2,0.2c1.2-1.5,2.4-3.1,3.6-4.6c0.1-0.1,0.2-0.2,0.2-0.3c0.1-0.1,0.1-0.1,0.1-0.2
			c1.1-1.4,2.2-2.7,3.2-4.1c0.8-1,1.5-2,2.3-3c0.7-0.9,1.4-1.9,2.1-2.8c0.7-0.9,1.3-1.7,2-2.6c0.2-0.3,0.5-0.6,0.7-0.9
			c0.1-0.1,0.1-0.1,0.2-0.2c0.5-0.6,0.9-1.2,1.4-1.8c1.1-1.5,2.3-2.9,3.4-4.5c1.1-1.6,2.3-3.2,3.4-4.9c1.1-1.5,2.1-3.1,3.2-4.6
			c0.6-0.8,1.1-1.6,1.6-2.4c0.5-0.8,1-1.6,1.6-2.4c0.4-0.7,0.9-1.4,1.3-2.1c0.5-0.7,1-1.5,1.4-2.2c0.5-0.7,0.9-1.4,1.4-2.1
			c0.5-0.7,0.9-1.4,1.4-2.1c0.3-0.4,0.6-0.8,1-1.2c0.4-0.4,0.4-1.1,0-1.5c-0.2-0.2-0.5-0.3-0.7-0.3
			C95.5,169.4,95.4,169.4,95.3,169.4z"/>
		<path id="Fill-833-Copy" class="st4" d="M118.2,177.5c0,0.1,0,0.2,0,0.2C118.1,177.7,118.2,177.6,118.2,177.5 M111.4,169.5
			c0.1,0.2,0.3,0.3,0.6,0.4c0.8,0.2,1.6,0.3,2.3,0.6c0.7,0.3,1.4,0.8,2,1.2c0.3,0.3,0.6,0.5,0.9,0.9c0.3,0.4,0.5,0.9,0.7,1.3
			c0.1,0.2,0.2,0.5,0.2,0.7c0.1,0.2,0.1,0.5,0.1,0.7c0,0.4,0.1,0.8,0,1.2c0,0.3-0.1,0.6-0.1,0.9c-0.1,0.7-0.3,1.5-0.6,2.2
			c-0.1,0.3-0.3,0.6-0.4,0.9c-0.2,0.3-0.4,0.6-0.6,0.9c-0.3,0.4-0.6,0.7-0.9,1.1c-0.3,0.3-0.6,0.6-0.9,0.9c-0.4,0.3-0.9,0.6-1.4,0.9
			c-0.4,0.2-0.9,0.5-1.4,0.7c-0.7,0.2-1.3,0.4-2,0.5c-0.6,0.1-1.1,0-1.7,0c-0.5-0.1-0.9-0.2-1.4-0.3c-0.4-0.2-0.7-0.4-1-0.6
			c-0.3-0.3-0.7-0.6-0.9-0.9c-0.2-0.3-0.4-0.6-0.6-0.9c-0.1-0.2-0.3-0.5-0.4-0.8c-0.1-0.1-0.1-0.3-0.2-0.4c-0.1-0.2-0.1-0.5-0.2-0.7
			c-0.1-0.4-0.2-0.8-0.2-1.2c-0.1-0.8-0.2-1.7-0.1-2.6c0.1-0.4,0.2-0.8,0.3-1.2c0.1-0.3,0.2-0.6,0.3-0.9c0.2-0.3,0.3-0.6,0.5-0.9
			c0.2-0.3,0.4-0.5,0.6-0.8c0.2-0.3,0.5-0.6,0.8-0.8c0.3-0.3,0.6-0.5,0.9-0.8c0.4-0.3,0.8-0.6,1.3-0.8c0.5-0.3,1-0.5,1.5-0.8
			c0.3-0.1,0.6-0.2,0.9-0.3C110.7,169.7,111,169.6,111.4,169.5C111.4,169.5,111.4,169.5,111.4,169.5 M111.2,167.7
			c-0.3,0-0.6,0.1-0.9,0.1c-0.2,0-0.4,0.1-0.7,0.1c-0.3,0.1-0.5,0.1-0.8,0.2c-0.3,0.1-0.6,0.2-0.9,0.3c-0.9,0.4-1.8,0.9-2.6,1.4
			c-0.9,0.6-1.6,1.3-2.3,2.2c-0.2,0.2-0.4,0.5-0.5,0.7c-0.1,0.2-0.3,0.4-0.4,0.7c-0.1,0.3-0.3,0.6-0.4,0.9c-0.1,0.3-0.2,0.5-0.3,0.8
			c-0.2,0.6-0.3,1.3-0.4,1.9c-0.1,0.8,0,1.5,0,2.3c0.1,1,0.3,2.1,0.7,3.1c0.2,0.6,0.5,1.1,0.8,1.6c0.1,0.2,0.2,0.4,0.4,0.6
			c0.3,0.5,0.7,0.8,1.1,1.2c0.9,0.9,2.1,1.5,3.3,1.7c0.6,0.1,1.2,0.2,1.8,0.2c0.8,0,1.6-0.1,2.3-0.3c0.5-0.1,1-0.3,1.6-0.6
			c0.4-0.2,0.9-0.4,1.3-0.6c0.9-0.5,1.8-1.1,2.6-1.9c0.4-0.4,0.7-0.7,1-1.1c0.4-0.5,0.7-0.9,1-1.4c0.3-0.4,0.5-0.9,0.7-1.4
			c0.2-0.5,0.3-1,0.5-1.5c0.1-0.5,0.2-1,0.3-1.6c0.1-0.5,0.1-0.9,0.1-1.4c0-0.6-0.1-1.1-0.2-1.6c-0.1-0.5-0.3-1-0.5-1.5
			c-0.1-0.3-0.2-0.5-0.4-0.8c-0.2-0.3-0.4-0.7-0.7-1c-0.4-0.6-1-1-1.6-1.4c-0.7-0.5-1.4-0.9-2.1-1.2c-0.5-0.2-0.9-0.3-1.4-0.4
			c-0.2-0.1-0.5-0.2-0.7-0.2c-0.3-0.1-0.6-0.1-0.8-0.1c-0.2,0-0.3,0-0.4,0C111.5,167.7,111.3,167.7,111.2,167.7"/>
		<path id="Fill-835-Copy" class="st4" d="M101.4,161.5c-0.2,0.2-0.3,0.5-0.3,0.8c0,0.3,0.1,0.6,0.3,0.8c0.7,0.6,1.3,1.1,2,1.7
			c0.5,0.4,1.1,0.8,1.6,1.2c0.5,0.4,1,0.8,1.6,1.2c0.2,0.2,0.5,0.4,0.7,0.5c0.3,0.2,0.7,0.4,1,0.5c0.2,0,0.3,0,0.5,0
			c0.2-0.1,0.5-0.2,0.6-0.5c0.1-0.2,0.1-0.3,0.1-0.5c0-0.2-0.1-0.5-0.3-0.7c-0.4-0.3-0.7-0.6-1-0.9c-0.4-0.3-0.9-0.7-1.3-1
			c-0.8-0.6-1.5-1.1-2.3-1.7c-0.6-0.5-1.2-1-1.8-1.5c-0.2-0.2-0.5-0.3-0.8-0.3C101.9,161.2,101.6,161.3,101.4,161.5"/>
		<path id="Fill-837-Copy" class="st4" d="M96.5,169.4c-0.2,0.1-0.3,0.3-0.3,0.5c0,0.1,0,0.3,0.1,0.4c0.1,0.1,0.2,0.3,0.3,0.4
			c0.1,0.1,0.2,0.2,0.3,0.3c0.2,0.2,0.4,0.3,0.5,0.5c0.4,0.3,0.7,0.6,1,1c0.4,0.3,0.7,0.7,1.1,1c0.2,0.2,0.4,0.3,0.5,0.5
			c0.3,0.3,0.6,0.5,0.9,0.7c0.1,0.1,0.3,0.1,0.5,0.1c0.2,0,0.5-0.1,0.6-0.3c0.2-0.2,0.3-0.4,0.3-0.6c0-0.2-0.1-0.5-0.3-0.6
			c-0.8-0.6-1.6-1.3-2.3-1.9c-0.4-0.3-0.8-0.6-1.1-0.9c-0.2-0.1-0.4-0.3-0.6-0.4c0,0,0,0-0.1,0c0-0.2-0.1-0.3-0.3-0.4
			c-0.2-0.1-0.4-0.2-0.6-0.3c-0.1-0.1-0.2-0.1-0.3-0.1C96.7,169.4,96.6,169.4,96.5,169.4"/>
		<path id="Fill-839-Copy" class="st4" d="M112.8,184.3c-0.4,0.4-0.4,1.1,0,1.5c1.1,1.1,2.2,2.2,3.3,3.3c0.2,0.2,0.5,0.5,0.8,0.7
			c0.6,0.5,1.2,1.1,1.9,1.6c1.7,1.5,3.5,2.9,5.2,4.4c0.7,0.5,1.3,1.1,2,1.6c0.8,0.6,1.6,1.2,2.4,1.7c0.5,0.3,1.1,0.1,1.4-0.4
			c0.1-0.2,0.2-0.5,0.1-0.8c-0.1-0.3-0.2-0.5-0.5-0.6c-0.2-0.1-0.4-0.3-0.6-0.4c0,0,0.1,0.1,0.1,0.1c-1.8-1.4-3.6-2.9-5.4-4.3
			c-0.9-0.7-1.8-1.5-2.7-2.2c-0.4-0.3-0.8-0.7-1.1-1c-0.6-0.5-1.2-1-1.7-1.5c-0.5-0.4-0.9-0.9-1.4-1.3c-0.8-0.8-1.6-1.6-2.4-2.4
			c-0.2-0.2-0.5-0.3-0.8-0.3C113.3,184,113.1,184.1,112.8,184.3"/>
		<path id="Fill-841-Copy" class="st4" d="M125.8,181c-0.3,0.3-0.3,0.8,0,1c1.4,1.3,2.8,2.5,4.2,3.8c0.5,0.5,1.1,1,1.6,1.5
			c0.3,0.3,0.6,0.6,1,0.9c0.3,0.3,0.6,0.6,1,0.8c0.6,0.4,1.2,0.8,1.8,1.2c0.3,0.2,0.8,0.1,1-0.3c0.1-0.2,0.1-0.4,0.1-0.6
			c-0.1-0.2-0.2-0.3-0.3-0.4c-0.6-0.4-1.2-0.8-1.7-1.3c-1.2-0.9-2.3-1.9-3.4-2.9c-1.4-1.3-2.8-2.5-4.2-3.8c-0.1-0.1-0.3-0.2-0.5-0.2
			C126.1,180.8,125.9,180.8,125.8,181"/>
		<path id="Fill-843-Copy" class="st4" d="M131.8,199.2c-0.5,1-1,1.9-1.5,2.9c-0.5,0.9-0.9,1.9-1.4,2.8c-0.5,1-1,1.9-1.4,2.9
			c-0.5,1-1,1.9-1.4,2.9c-0.9,2-1.8,4.1-2.8,6.1c-0.9,2-1.8,4-2.8,5.9c-0.9,2-1.8,3.9-2.7,5.9c-1,2.1-1.9,4.2-2.8,6.4
			c-1.1,2.6-2.1,5.1-3.2,7.7c-0.1,0.3-0.3,0.6-0.4,1c-0.4,0.8-0.7,1.7-1.1,2.5c-0.4,1-0.9,2-1.3,3c-0.5,1-1,2-1.5,3
			c-0.5,0.9-0.9,1.8-1.4,2.7c-0.5,1.1-1.1,2.1-1.7,3.2c-1,1.9-2,3.8-3,5.6c-1.1,2-2.3,4-3.4,6c-0.5,0.9-1.1,1.9-1.6,2.8
			c-0.6,1-1.1,1.9-1.6,2.9c-1,1.9-2.1,3.7-3.2,5.5c-1,1.7-2,3.3-3.1,5c-0.6,0.8-1.1,1.7-1.7,2.5c-0.5,0.8-1.1,1.5-1.6,2.3
			c0-0.1,0.1-0.1,0.1-0.2c-0.3,0.4-0.6,0.7-0.8,1.1c-0.5,0.7-1.1,1.3-1.6,2c-0.6,0.7-1.1,1.4-1.7,2c-0.6,0.7-1.3,1.3-1.9,2
			c-0.6,0.6-1.3,1.1-1.9,1.6c-0.3,0.2-0.5,0.4-0.8,0.6c-0.3,0.2-0.6,0.4-0.9,0.6c-0.2,0.2-0.5,0.3-0.7,0.4c-0.4,0.2-0.8,0.4-1.2,0.6
			c-0.3,0.1-0.3,0.5-0.2,0.7c0.2,0.3,0.5,0.3,0.7,0.2c0.3-0.2,0.6-0.3,0.9-0.5c0.2-0.1,0.5-0.3,0.7-0.4c0.5-0.3,0.9-0.6,1.4-0.9
			c0.2-0.1,0.4-0.3,0.6-0.4c0.3-0.2,0.6-0.4,0.9-0.6c0.2-0.1,0.4-0.3,0.6-0.5c0.2-0.2,0.4-0.3,0.6-0.5c0.9-0.7,1.7-1.5,2.5-2.3
			c0.4-0.4,0.8-0.8,1.2-1.3c0.4-0.4,0.7-0.8,1.1-1.2c0.7-0.8,1.4-1.6,2.1-2.5c0.7-0.9,1.4-1.9,2.1-2.8c1.3-1.8,2.6-3.7,3.8-5.6
			c0.6-0.9,1.1-1.8,1.7-2.7c0.6-0.9,1.1-1.8,1.6-2.7c0.5-0.9,1.1-1.9,1.6-2.9c0.6-1,1.1-1.9,1.7-2.8c0.5-0.9,1.1-1.9,1.6-2.8
			c0.6-1,1.2-2,1.8-3.1c1.1-1.9,2.1-3.8,3.1-5.7c0.5-1,1.1-2,1.6-3.1c0.5-0.9,0.9-1.9,1.4-2.8c0.5-1,1-1.9,1.5-2.9
			c0.5-1,0.9-2,1.4-3c0.4-0.8,0.7-1.7,1.1-2.5c1.6-3.7,3.1-7.5,4.7-11.2c0.9-2,1.7-3.9,2.6-5.9c0.9-2,1.9-4,2.8-6
			c0.5-1,0.9-1.9,1.4-2.9c0.5-1,0.9-2,1.4-3.1c0.4-1,0.9-2,1.3-3c0.5-1,0.9-2,1.4-3c0.4-0.9,0.8-1.7,1.3-2.6
			c0.4-0.9,0.9-1.7,1.3-2.6c0.4-0.8,0.8-1.7,1.2-2.5c0.4-0.9,0.9-1.8,1.4-2.7c0.1-0.3,0.2-0.5,0.1-0.8c-0.1-0.3-0.3-0.5-0.5-0.6
			c-0.2-0.1-0.4-0.1-0.5-0.1C132.3,198.7,131.9,198.9,131.8,199.2"/>
		<path id="Fill-845-Copy" class="st4" d="M109.8,140.1c-0.6,0.2-1.2,0.3-1.7,0.5c-0.5,0.1-1,0.3-1.5,0.5c-1,0.3-2.1,0.7-3.1,1.1
			c-1,0.4-2,0.7-3,1.1c-1.1,0.4-2.1,0.8-3.2,1.2c-1.1,0.4-2.2,0.9-3.2,1.4c-0.5,0.2-0.9,0.4-1.4,0.7c-0.5,0.2-1,0.4-1.4,0.7
			c-0.9,0.5-1.9,1-2.8,1.5c-1,0.5-2,1-3,1.6c-3.9,2.1-7.6,4.8-11.1,7.4c-3.5,2.6-6.9,5.4-10.2,8.3c-0.9,0.8-1.9,1.6-2.8,2.5
			c-0.8,0.7-1.7,1.5-2.5,2.3c-0.4,0.3-0.7,0.7-1.1,1.1c-0.3,0.3-0.7,0.6-1,1c-0.9,0.9-1.7,1.8-2.5,2.7c-0.7,0.8-1.4,1.5-2,2.3
			c-0.4,0.5-0.8,1-1.3,1.5c-0.4,0.4-0.7,0.9-1.1,1.3c-0.7,0.9-1.4,1.9-2.1,2.8c-0.6,0.8-1.2,1.7-1.7,2.5c-0.6,0.9-1.2,1.9-1.8,2.8
			c-0.6,0.9-1.2,1.9-1.8,2.8c-0.6,1-1.1,1.9-1.7,2.9c-0.5,1-1,2-1.6,2.9c-1.1,2-2.1,4.1-3,6.1c-0.9,2-1.9,3.9-2.9,5.8
			c-1.3,2.5-2.5,5-3.8,7.5c-0.1,0.3-0.2,0.5-0.1,0.8c0.1,0.3,0.3,0.5,0.5,0.6c0.5,0.3,1.2,0.1,1.5-0.4c1.1-2.2,2.2-4.4,3.3-6.6
			c1-2,2.1-4,3.1-6.1c0.9-2,1.9-4,2.9-5.9c1-2,2.1-4,3.2-5.9c1.1-1.9,2.3-3.7,3.5-5.6c0.6-1,1.3-1.9,1.9-2.9c0.6-0.9,1.3-1.9,2-2.8
			c1.4-1.7,2.7-3.3,4.2-4.9c0.4-0.4,0.8-0.9,1.2-1.3c0.5-0.5,0.9-1,1.4-1.5c0.7-0.8,1.5-1.5,2.2-2.2c0.4-0.4,0.9-0.8,1.3-1.2
			c0.3-0.3,0.6-0.6,1-0.9c0.9-0.8,1.8-1.6,2.7-2.4c1.6-1.5,3.3-2.9,5-4.3c1.6-1.4,3.3-2.7,5-4c-0.1,0-0.1,0.1-0.2,0.2
			c0.9-0.7,1.8-1.3,2.7-2c0.8-0.6,1.7-1.2,2.5-1.8c1-0.7,2-1.3,3-2c0.8-0.5,1.7-1.1,2.6-1.6c1.8-1,3.7-1.9,5.5-2.8
			c1.7-0.8,3.4-1.6,5.1-2.3c1-0.4,2.1-0.8,3.1-1.2c1-0.4,2-0.7,3.1-1.1c1-0.4,2-0.7,3-1.1c1-0.4,2.1-0.7,3.1-1
			c0.6-0.2,1.1-0.3,1.6-0.5c0.3-0.1,0.5-0.2,0.6-0.5c0.1-0.2,0.2-0.5,0.1-0.8c-0.1-0.4-0.6-0.8-1-0.8
			C110,140,109.9,140.1,109.8,140.1"/>
		<path id="Fill-847-Copy" class="st4" d="M13.9,254.9c0,0,0,0.1-0.1,0.1C13.9,255,13.9,254.9,13.9,254.9 M28.4,221.9
			c-0.4,0.6-0.8,1.2-1.2,1.8c-0.2,0.4-0.5,0.7-0.7,1.1c-0.6,1-1.1,1.9-1.7,2.9c-0.5,1-1.1,2-1.6,3c-0.4,0.8-0.9,1.6-1.3,2.4
			c-0.5,0.9-1,1.9-1.5,2.9c-0.5,1-1,2.1-1.5,3.1c-0.8,1.8-1.7,3.6-2.5,5.4c-0.9,2-1.8,4-2.7,6c-0.9,2-1.8,4.1-2.6,6.1
			c-0.4,0.9-0.7,1.8-1.1,2.8c-0.2,0.5-0.4,0.9-0.5,1.4c-0.2,0.4-0.3,0.8-0.5,1.2c-0.2,0.6-0.4,1.2-0.6,1.9c-0.1,0.4-0.2,0.7-0.4,1.1
			c-0.3,1-0.6,2-0.9,3c-0.3,1-0.6,2.1-0.9,3.1c-0.3,1.1-0.6,2.3-0.9,3.4c-0.5,1.9-1,3.8-1.5,5.7c-0.8,3.4-1.7,6.9-2.2,10.4
			c0,0.1,0,0.2,0,0.2c0,0.2,0,0.3,0.1,0.5c0.1,0.2,0.3,0.4,0.5,0.4c0.4,0.1,1-0.1,1.1-0.6c0.4-2.1,1-4.1,1.5-6.2
			c0.5-2.1,1-4.2,1.5-6.3c0.5-2.1,1.1-4.1,1.6-6.2c0.5-2,1.1-3.9,1.7-5.9c0.1-0.4,0.2-0.8,0.4-1.3c0.2-0.6,0.4-1.2,0.6-1.7
			c0.1-0.4,0.3-0.8,0.4-1.2c0.2-0.6,0.5-1.3,0.7-1.9c0.7-1.9,1.5-3.7,2.2-5.6c0.8-1.8,1.6-3.7,2.4-5.5c0.9-2,1.8-4.1,2.7-6.1
			c0.8-1.8,1.6-3.6,2.5-5.4c0.3-0.6,0.5-1.1,0.8-1.7c0.2-0.5,0.5-0.9,0.7-1.4c0.5-1,1-2,1.5-3c0.7-1.3,1.4-2.7,2.2-4
			c0.3-0.5,0.6-1,0.9-1.6c0.1-0.2,0.3-0.5,0.4-0.7c0.6-0.9,1.2-1.9,1.8-2.8c0.2-0.4,0.1-0.9-0.3-1.1c-0.1-0.1-0.3-0.1-0.4-0.1
			C28.8,221.5,28.6,221.6,28.4,221.9"/>
		<path id="Fill-849-Copy" class="st4" d="M186.7,142c0,0,0,0.1,0.1,0.1C186.8,142.1,186.8,142,186.7,142 M186.8,142
			c0,0,0,0.1,0,0.1C186.8,142,186.8,142,186.8,142 M186.7,142C186.7,142,186.7,142,186.7,142C186.7,142,186.7,142,186.7,142
			 M184.5,138.5c-0.3,0.1-0.5,0.3-0.7,0.5c-0.3,0.5-0.1,1.2,0.4,1.5c0.4,0.2,0.7,0.4,1.1,0.6c0.3,0.2,0.6,0.4,0.9,0.6
			c0.2,0.1,0.3,0.3,0.5,0.4c0,0,0,0,0,0.1v0c-0.1,0.3-0.2,0.7-0.3,1c-0.1,0.4-0.2,0.7-0.4,1.1c-0.3,0.7-0.5,1.4-0.8,2.1
			c-0.4,1-0.9,2.1-1.4,3.1c-0.5,1-1,2-1.5,3c-0.5,1-1,2-1.5,3.1c-0.5,1.1-1,2.1-1.5,3.2c-1,2.2-1.9,4.4-3,6.5
			c-1,2.1-2.1,4.1-3.2,6.1c-0.3,0.5-0.6,1.1-0.9,1.6c-0.1,0.2-0.2,0.4-0.3,0.6c0-0.1-0.1-0.2-0.1-0.3c-0.3-0.5-0.5-1-0.8-1.5
			c-0.5-1-1.2-1.9-1.7-2.9c-0.6-1-1.2-2.1-1.8-3.2c-0.6-1-1.1-2-1.7-3c-0.3-0.5-0.5-1-0.8-1.5c-0.1-0.2-0.3-0.4-0.4-0.6
			c-0.2-0.2-0.3-0.4-0.5-0.7c-0.3-0.4-0.8-0.6-1.3-0.4c-0.4,0.1-0.7,0.5-0.9,0.9c-0.1,0.2-0.1,0.3-0.1,0.5c-0.1,0.3-0.1,0.6-0.2,0.8
			c-0.1,0.5-0.2,1.1-0.3,1.6c-0.5,2.3-1.1,4.6-1.6,6.9c-0.4,1.8-0.8,3.6-1.1,5.4c0,0.1-0.1,0.3-0.1,0.5c-0.1-0.4-0.1-0.7-0.2-1.1
			c-0.4-2.5-0.8-4.9-1.2-7.4c0-0.1,0-0.3-0.1-0.4c0-0.3-0.3-0.5-0.5-0.6c-0.2-0.1-0.5-0.2-0.8-0.1c-0.3,0.1-0.5,0.3-0.6,0.5
			c0,0.1-0.1,0.2-0.1,0.3c-0.1,0.2-0.1,0.4,0,0.6c0.4,2.5,0.7,5.1,1.2,7.6c0.2,1.2,0.4,2.4,0.6,3.5c0.1,0.6,0.2,1.2,0.3,1.8
			c0.1,0.5,0.2,1.1,0.3,1.6c0,0.2,0.1,0.4,0.2,0.5c0.2,0.4,0.6,0.5,1,0.5c0.4,0,0.8-0.2,0.9-0.5c0.2-0.4,0.2-0.8,0.3-1.2
			c0.1-0.4,0.1-0.8,0.2-1.2c0.1-0.6,0.2-1.2,0.2-1.9c0.1-0.5,0.1-1,0.2-1.5c0.1-0.6,0.2-1.3,0.3-1.9c0.2-1.1,0.5-2.1,0.7-3.2
			c0.3-1.2,0.5-2.4,0.8-3.6c0.3-1.1,0.5-2.2,0.8-3.3c0.1-0.7,0.3-1.4,0.4-2l0-0.1c0.2,0.4,0.4,0.8,0.7,1.2c0.6,1.1,1.2,2.1,1.8,3.2
			c0.6,1,1.2,2,1.8,3c0.3,0.5,0.6,1,0.9,1.4c0.3,0.5,0.6,1,0.8,1.5c0.3,0.5,0.5,1,0.7,1.5c0.1,0.2,0.2,0.4,0.3,0.6
			c0,0.1,0.1,0.1,0.1,0.2c0.1,0.2,0.2,0.4,0.4,0.5c0.1,0.1,0.4,0.3,0.6,0.3c0.3,0.1,0.6,0,0.9-0.1c0.5-0.2,0.8-0.7,1-1.2
			c0.2-0.2,0.3-0.5,0.5-0.7c0.3-0.5,0.6-0.9,0.8-1.4c0.6-1,1.2-2,1.7-3c0.6-1,1.1-2.1,1.6-3.2c1-2.1,1.9-4.2,2.9-6.3
			c0.5-1.1,0.9-2.1,1.4-3.2c0.5-1.1,1-2.1,1.5-3.1c1-2.1,2.1-4.1,3-6.2c0.5-1.1,0.9-2.2,1.4-3.3c0.2-0.5,0.3-1,0.5-1.5
			c0-0.1,0.1-0.3,0.1-0.4c0.1-0.4,0.1-0.8,0-1.2c0,0,0-0.1-0.1-0.1c0-0.1-0.1-0.3-0.2-0.4c-0.1-0.2-0.3-0.4-0.4-0.5
			c-0.1-0.1-0.2-0.2-0.4-0.3c-0.4-0.3-0.8-0.6-1.3-0.9c-0.4-0.2-0.8-0.5-1.2-0.7c-0.2-0.1-0.4-0.1-0.6-0.1
			C184.7,138.4,184.6,138.4,184.5,138.5"/>
		<path id="Fill-851-Copy" class="st4" d="M186,140.9c-0.1,0.3,0,0.6,0.1,0.8c0.2,0.3,0.4,0.4,0.7,0.5c2.2,0.7,4.4,1.5,6.6,2.1
			c2.2,0.6,4.4,1.2,6.5,1.8c2.1,0.5,4.2,0.9,6.3,1.4c2.1,0.4,4.1,0.9,6.1,1.4c2.1,0.5,4.2,1,6.3,1.6c1.1,0.3,2.1,0.7,3.2,1
			c1,0.4,2,0.8,2.9,1.2c0.9,0.4,1.9,0.8,2.8,1.3c1,0.5,2,1,2.9,1.5c1,0.6,2,1.1,2.9,1.7c0.8,0.5,1.7,1.1,2.5,1.6
			c0.5,0.3,1,0.7,1.4,1.1c1.6,1.3,3.2,2.6,4.8,4c0.8,0.7,1.5,1.4,2.3,2.1c0.8,0.7,1.5,1.5,2.3,2.2c0.5,0.5,1,1,1.4,1.5
			c0.5,0.5,0.9,1,1.4,1.6c0.5,0.6,1,1.1,1.5,1.7c0.4,0.5,0.8,1,1.2,1.4c0.6,0.8,1.2,1.7,1.8,2.5c0.6,0.8,1.2,1.6,1.8,2.4
			c0.6,0.9,1.2,1.8,1.8,2.6c0.6,0.9,1.3,1.7,1.9,2.6c0.3,0.4,0.5,0.8,0.8,1.2c0.3,0.5,0.6,1,0.9,1.5c0.5,0.9,1.1,1.7,1.6,2.6
			c0.6,0.9,1.1,1.8,1.7,2.8c0.3,0.4,0.5,0.9,0.8,1.3c0.1,0.2,0.2,0.4,0.3,0.6c0.1,0.3,0.3,0.5,0.4,0.8c0.2,0.4,0.4,0.9,0.5,1.3
			c0.2,0.5,0.4,1.1,0.6,1.6c0.3,0.9,0.7,1.8,1.1,2.7c0.9,2.1,1.8,4.2,2.7,6.2c0.2,0.4,0.4,0.9,0.6,1.3c0.1,0.1,0.2,0.2,0.3,0.3
			c0.2,0.1,0.4,0.1,0.7,0.1c0.2-0.1,0.4-0.2,0.5-0.4c0.1-0.2,0.2-0.5,0.1-0.7c-0.8-2-1.6-4-2.4-6c-0.4-1.1-0.8-2.2-1.3-3.3
			c-0.3-0.9-0.7-1.9-1-2.8c-0.2-0.6-0.4-1.1-0.7-1.7c-0.2-0.5-0.5-1-0.7-1.5c-0.6-1-1.1-2-1.7-2.9c-0.5-0.9-1-1.7-1.6-2.6
			c-0.3-0.5-0.6-1-1-1.5c-0.3-0.4-0.5-0.8-0.8-1.3c-0.3-0.5-0.6-1-0.9-1.4c-0.3-0.4-0.6-0.8-0.9-1.2c-0.3-0.4-0.7-0.9-1-1.3
			c-0.3-0.4-0.6-0.9-0.9-1.3c-0.6-0.9-1.2-1.7-1.8-2.5c-0.6-0.8-1.2-1.6-1.8-2.4c-0.7-0.9-1.4-1.8-2.1-2.7c-0.7-0.8-1.5-1.7-2.2-2.5
			c-1.4-1.6-2.9-3.1-4.4-4.5c-0.8-0.7-1.5-1.5-2.3-2.2c-0.8-0.7-1.6-1.3-2.4-2c-0.9-0.7-1.7-1.4-2.6-2.1c-0.4-0.3-0.9-0.7-1.3-1
			c-0.4-0.3-0.9-0.6-1.3-0.9c-0.8-0.6-1.7-1.1-2.6-1.6c-0.5-0.3-1-0.6-1.5-0.9c-0.5-0.3-1-0.5-1.5-0.8c-1.9-1-4-1.9-6-2.7
			c-0.5-0.2-1-0.4-1.4-0.6c-0.2-0.1-0.5-0.2-0.7-0.3c-0.2-0.1-0.5-0.2-0.7-0.3c-1-0.3-2-0.6-3-0.9c-2.1-0.6-4.2-1.1-6.2-1.6
			c-1-0.3-2-0.5-3.1-0.8c-1.1-0.2-2.2-0.5-3.3-0.7c-1.1-0.2-2.2-0.5-3.3-0.7c-1-0.2-2.1-0.5-3.1-0.8c-1.9-0.5-3.8-1.1-5.7-1.6
			c-2.1-0.6-4.1-1.3-6.2-2c-0.1,0-0.2,0-0.3,0C186.5,140,186.1,140.4,186,140.9"/>
		<path id="Fill-853-Copy" class="st4" d="M234,250.8c-0.3,0.1-0.5,0.3-0.6,0.5c0,0.1-0.1,0.2-0.1,0.3c-0.1,0.2-0.1,0.4,0,0.6
			c0.8,4.8,1.6,9.6,2.5,14.3c0.4,2.2,0.9,4.3,1.3,6.5c0.2,1.1,0.4,2.1,0.7,3.2c0.2,1,0.4,2.1,0.7,3.1c0.1,0.3,0.1,0.6,0.2,0.9
			c0.1,0.4,0.2,0.8,0.4,1.2c0,0.1,0.1,0.1,0.1,0.2c0,0.1,0,0.2,0.1,0.4c0.1,0.5,0.2,1,0.3,1.4c0.1,0.4,0.4,0.6,0.8,0.6
			c0.4,0,0.9-0.4,0.9-0.9c0-0.5,0-1-0.1-1.5c0-0.3,0-0.5-0.1-0.8c0-0.1,0-0.2,0-0.4c0-0.1,0-0.1,0-0.2c0-0.2,0-0.5-0.2-0.7
			c-0.1-0.1-0.1-0.2-0.2-0.2c0-0.1-0.1-0.3-0.1-0.4c-0.1-0.5-0.2-1-0.3-1.4c-0.2-1.1-0.5-2.2-0.7-3.3c-0.4-2-0.8-3.9-1.2-5.9
			c-0.5-2.4-0.9-4.7-1.4-7.1c-0.1-0.8-0.3-1.6-0.4-2.3c-0.2-1.4-0.5-2.8-0.7-4.1c-0.2-1.1-0.3-2.1-0.5-3.2c0-0.3-0.3-0.5-0.5-0.6
			c-0.2-0.1-0.4-0.1-0.5-0.1C234.2,250.8,234.1,250.8,234,250.8"/>
		<path id="Fill-855-Copy" class="st4" d="M233.8,272c-0.2,0.1-0.3,0.2-0.4,0.3c-0.1,0.2-0.1,0.4-0.1,0.6c0.3,1.7,0.6,3.3,0.9,5
			c0.3,1.5,0.5,2.9,0.9,4.3c0.1,0.3,0.5,0.5,0.8,0.5c0.2,0,0.3-0.2,0.4-0.3c0.1-0.2,0.1-0.3,0.1-0.5c-0.3-1.5-0.5-2.9-0.8-4.4
			c-0.3-1.7-0.6-3.3-0.9-5c0-0.2-0.2-0.4-0.3-0.4c-0.1-0.1-0.2-0.1-0.4-0.1C233.9,272,233.8,272,233.8,272"/>
		<path id="Fill-857-Copy" class="st4" d="M29.9,218.4c-0.2,0.1-0.4,0.4-0.5,0.7c-0.1,0.3,0,0.6,0.1,0.8c0.1,0.2,0.4,0.5,0.7,0.5
			c1.4,0.2,2.7,0.5,4.1,0.8c1.1,0.2,2.2,0.4,3.2,0.6c1.2,0.2,2.4,0.4,3.7,0.7c1.1,0.2,2.2,0.4,3.3,0.7c2,0.4,4.1,1,6.1,1.4
			c1,0.2,2,0.4,3,0.5c0.5,0.1,1,0.2,1.5,0.2c0.2,0,0.5,0.1,0.7,0.1c0.3,0,0.7,0.1,1,0.2c0.5,0.2,1-0.1,1.2-0.5
			c0.1-0.2,0.2-0.5,0.1-0.8c-0.1-0.2-0.3-0.5-0.5-0.6c-0.3-0.1-0.5-0.2-0.8-0.3c-0.1,0-0.2,0-0.3-0.1c-0.3,0-0.6-0.1-0.8-0.1
			c-0.5-0.1-1-0.2-1.6-0.2c-1.1-0.2-2.2-0.4-3.3-0.6c-1.2-0.2-2.3-0.5-3.5-0.8c-1.1-0.3-2.1-0.5-3.2-0.7c-1-0.2-2.1-0.4-3.1-0.6
			c-1.1-0.2-2.1-0.4-3.2-0.6c-2.3-0.5-4.6-0.9-6.9-1.3c-0.1,0-0.2,0-0.3,0C30.3,218.2,30.1,218.2,29.9,218.4"/>
		<path id="Fill-859-Copy" class="st4" d="M140.3,52.2c-0.5,0-0.9,0.3-1,0.7c-0.4,1.2-0.7,2.5-1,3.7c-0.3,1.1-0.6,2.2-0.8,3.3
			c-0.3,1.1-0.6,2.2-0.8,3.3c-0.2,1.1-0.5,2.3-0.7,3.4c-0.1,0.5-0.2,1-0.3,1.5c-0.1,0.6-0.2,1.2-0.2,1.8c0,0.2,0,0.3,0,0.5
			c0,0.2,0,0.4,0.1,0.5c0,0.1,0.1,0.3,0.2,0.4c0.1,0.2,0.3,0.4,0.5,0.5c0.2,0.1,0.4,0.2,0.7,0.2c0.3,0,0.5-0.1,0.7-0.2
			c0.2-0.1,0.3-0.2,0.4-0.4c0.1,0,0.2-0.1,0.2-0.2c0.1-0.1,0.2-0.2,0.2-0.3c0-0.1,0.1-0.2,0.1-0.3c0.3-0.7,0.5-1.3,0.8-2
			c0.2-0.6,0.4-1.2,0.5-1.8c0.3-1,0.5-2.1,0.7-3.2c0.2-1.1,0.4-2.3,0.6-3.4c0.1-0.3,0.1-0.6,0.2-0.9c0.1-0.4,0.2-0.7,0.3-1.1
			c0.2-0.7,0.4-1.4,0.5-2c0.1-0.3,0.1-0.7,0.2-1c0-0.2,0.1-0.5,0.1-0.7c0-0.2,0-0.3,0-0.5c0-0.1,0-0.3-0.1-0.4
			c0-0.1-0.1-0.3-0.2-0.4c-0.1-0.2-0.2-0.3-0.4-0.4c-0.1-0.2-0.3-0.4-0.5-0.5c-0.2-0.1-0.4-0.1-0.5-0.1
			C140.6,52.1,140.4,52.1,140.3,52.2"/>
		<path id="Fill-861-Copy" class="st4" d="M125.8,54.2c-0.2,0.3-0.2,0.6-0.2,0.9c0,0.2,0,0.3,0,0.5c0,0.3,0.1,0.5,0.3,0.7
			c0,0.1,0.1,0.2,0.1,0.3c0.1,0.3,0.5,0.5,0.8,0.5c0.3,0,0.6-0.2,0.8-0.5c0.1-0.2,0.1-0.3,0.1-0.4c0,0,0,0,0,0
			c0.1-0.4,0.1-0.8,0.2-1.2c0-0.2-0.1-0.4-0.2-0.5c0,0,0-0.1,0-0.1c-0.1-0.3-0.4-0.6-0.7-0.7c-0.1,0-0.2,0-0.3,0
			C126.3,53.7,126,53.9,125.8,54.2"/>
		<path id="Fill-863-Copy" class="st4" d="M154.2,55.4c-0.2,0.1-0.3,0.1-0.5,0.3c-0.1,0.1-0.2,0.3-0.3,0.4c-0.1,0.3-0.2,0.5-0.1,0.8
			c0.1,0.2,0.2,0.4,0.3,0.5c0,0.2,0,0.3,0,0.5c0,0.1,0,0.3,0,0.4c-0.1,0.3-0.2,0.6-0.1,0.9c0,0.2,0.1,0.4,0.3,0.6
			c0.2,0.2,0.6,0.3,0.9,0.2c0.2-0.1,0.3-0.1,0.5-0.2c0.1-0.1,0.2-0.3,0.3-0.5c0.1-0.2,0.1-0.4,0.1-0.6c0-0.3,0.1-0.6,0.1-0.9l0-0.1
			c0.1-0.2,0.1-0.4,0.2-0.5c0.1-0.3,0-0.6-0.2-0.8c0,0,0-0.1,0-0.1c0-0.2-0.2-0.5-0.4-0.6c-0.2-0.2-0.5-0.3-0.7-0.3
			C154.4,55.4,154.3,55.4,154.2,55.4"/>
		<path id="Fill-865-Copy" class="st4" d="M127.4,52.1c-0.4,0.1-0.8,0.5-0.7,1c0,0,0,0,0,0c0,0,0,0,0,0c-0.3,0.7-0.6,1.4-0.8,2.1
			c-0.2,0.5-0.3,0.9-0.3,1.4c0,0.4,0.1,0.9,0.5,1.2c0.2,0.1,0.5,0.2,0.7,0.1c0.3-0.1,0.5-0.2,0.7-0.5c0.2-0.2,0.3-0.4,0.5-0.7
			c0.1-0.2,0.2-0.4,0.3-0.6c0.1-0.3,0.2-0.5,0.3-0.8c0.1-0.3,0.2-0.6,0.2-0.9c0.1-0.3,0.1-0.5,0.1-0.8c0-0.2,0-0.4-0.1-0.6
			c0-0.1-0.1-0.2-0.1-0.3c-0.1-0.1-0.2-0.2-0.3-0.3c-0.1-0.1-0.3-0.2-0.4-0.3c-0.1,0-0.2,0-0.3,0C127.6,52.1,127.5,52.1,127.4,52.1"
			/>
		<path id="Fill-867-Copy" class="st4" d="M154.9,53.8c-0.2,0-0.4,0.2-0.5,0.4c-0.3,0.6-0.5,1.3-0.8,1.9c-0.1,0.3-0.2,0.6-0.3,1
			c-0.1,0.3-0.1,0.7-0.1,1.1c0.1,0.4,0.4,0.8,0.8,0.9c0.1,0,0.1,0,0.2,0c0.1,0,0.2,0,0.3-0.1c0.2-0.1,0.4-0.2,0.6-0.4
			c0.2-0.2,0.4-0.5,0.5-0.7c0.2-0.3,0.3-0.6,0.4-1c0.1-0.2,0.1-0.5,0.2-0.7c0.1-0.2,0.1-0.5,0.1-0.8c0-0.1,0-0.3-0.1-0.4
			c0-0.1-0.1-0.2-0.1-0.4c-0.1-0.1-0.1-0.2-0.2-0.3c-0.1-0.1-0.2-0.1-0.3-0.2c0,0,0,0-0.1,0c-0.1-0.1-0.2-0.2-0.3-0.2
			c-0.1-0.1-0.3-0.1-0.4-0.1C155.1,53.7,155,53.7,154.9,53.8"/>
		<path id="Fill-869-Copy" class="st4" d="M196.2,65.1c-0.6,0-1.2,0.1-1.7,0.2c-0.5,0.1-1,0.3-1.5,0.5c-0.6,0.2-1.1,0.5-1.6,0.8
			c-0.4,0.3-0.7,0.6-1.1,0.9c-0.4,0.4-0.8,0.8-1.1,1.2c-0.5,0.6-0.9,1.3-1.4,2c-0.3,0.5-0.1,1.2,0.4,1.5c0.5,0.3,1.2,0.1,1.5-0.4
			c0.3-0.4,0.6-0.9,0.9-1.3c0.4-0.5,0.8-0.9,1.2-1.3c0.3-0.2,0.5-0.5,0.8-0.7c0.3-0.2,0.6-0.4,0.9-0.5c0.4-0.2,0.8-0.3,1.1-0.4
			c0.4-0.1,0.7-0.2,1.1-0.2c0.3,0,0.5-0.1,0.8,0c0.3,0,0.5,0,0.8,0.1c0.3,0.1,0.7,0.1,1,0.2c0.3,0.1,0.5,0.3,0.8,0.5
			c0.2,0.2,0.4,0.3,0.6,0.5c0.2,0.2,0.3,0.4,0.5,0.5c0.3,0.4,0.5,0.8,0.7,1.3c0.3,0.7,0.5,1.4,0.6,2.2c0,0.5,0,0.9,0,1.4
			c-0.1,0.3-0.1,0.7-0.2,1c-0.1,0.3-0.2,0.7-0.3,1c-0.2,0.4-0.3,0.8-0.5,1.1c-0.2,0.4-0.5,0.8-0.8,1.2c-0.1,0.2-0.3,0.4-0.4,0.5
			c-0.2,0.3-0.5,0.5-0.7,0.8c-0.4,0.5-0.9,0.9-1.4,1.4c-0.5,0.5-1,0.9-1.5,1.3c-0.5,0.4-1,0.8-1.4,1.2c-0.4,0.3-0.9,0.7-1.3,1
			c-0.6,0.4-1.1,0.9-1.6,1.4c-1,0.8-1.8,1.8-2.6,2.8c0,0.1-0.1,0.1-0.1,0.2c-0.1,0.1-0.1,0.3-0.1,0.4c0,0.2,0.1,0.5,0.3,0.6
			c0.3,0.3,0.9,0.4,1.3,0c0.6-0.7,1.3-1.4,2-2c0.4-0.3,0.8-0.7,1.1-1c0.3-0.3,0.6-0.5,0.9-0.7c0.9-0.7,1.8-1.3,2.6-2
			c0.8-0.7,1.7-1.3,2.5-2c0.4-0.3,0.7-0.7,1-1c0.4-0.4,0.8-0.8,1.1-1.3c0.4-0.5,0.7-0.9,1-1.4c0.1-0.2,0.2-0.4,0.3-0.5
			c0.1-0.3,0.3-0.5,0.4-0.8c0.2-0.6,0.4-1.1,0.6-1.7c0.2-0.9,0.4-1.9,0.2-2.8c-0.1-0.6-0.2-1.3-0.4-1.9c-0.1-0.2-0.2-0.5-0.2-0.7
			c-0.1-0.3-0.2-0.6-0.4-0.9c-0.2-0.4-0.4-0.7-0.6-1c-0.2-0.3-0.4-0.5-0.6-0.8c-0.4-0.4-0.8-0.8-1.2-1.1c-0.3-0.2-0.5-0.3-0.8-0.5
			c-0.4-0.2-0.9-0.3-1.4-0.4c-0.5-0.1-1-0.1-1.5-0.1C196.3,65.1,196.3,65.1,196.2,65.1"/>
		<path id="Fill-871-Copy" class="st4" d="M161.1,19.6c-1.6,0-3.3,0.1-4.9,0.1c-1.6,0.1-3.2,0.3-4.7,0.5c-1.7,0.2-3.3,0.4-4.9,0.6
			c-1.5,0.2-3,0.6-4.4,1c-1.6,0.5-3.1,0.9-4.7,1.4c-1.5,0.5-2.9,1.1-4.4,1.7c-1,0.4-1.9,0.8-2.8,1.2c-0.9,0.4-1.9,0.9-2.8,1.5
			c-0.2,0.1-0.3,0.4-0.2,0.6c0.1,0.2,0.4,0.3,0.6,0.2c0.4-0.2,0.8-0.5,1.3-0.7c0.4-0.2,0.8-0.4,1.2-0.6c1.4-0.6,2.9-1.1,4.3-1.6
			c0.7-0.3,1.5-0.5,2.2-0.7c0.8-0.2,1.6-0.5,2.4-0.7c1.1-0.3,2.2-0.6,3.4-0.8c0.6-0.1,1.2-0.3,1.8-0.4c0.5-0.1,1.1-0.2,1.6-0.3
			c1.5-0.2,3-0.4,4.6-0.5c1.6-0.2,3.2-0.4,4.8-0.4c1.7-0.1,3.3-0.1,5-0.1c1.6,0,3.1,0,4.7,0c1,0,1.9,0.1,2.9,0.2
			c0.8,0.1,1.6,0.3,2.4,0.4c0.3,0.1,0.5,0,0.7-0.1c0.2-0.1,0.4-0.3,0.4-0.6c0.1-0.5-0.2-1-0.7-1.2c-1.6-0.4-3.3-0.7-5-0.8
			c-0.4,0-0.9,0-1.3-0.1c-0.4,0-0.8,0-1.3,0c-0.1,0-0.2,0-0.3,0C162.4,19.5,161.8,19.6,161.1,19.6"/>
		<path id="Fill-873-Copy" class="st4" d="M142.9,29.4l-0.2,0.1L142.9,29.4z M170.1,19.6c-1,0.1-2,0.2-3,0.4
			c-1.8,0.4-3.6,0.9-5.4,1.4c-1.8,0.5-3.6,1-5.4,1.5c-1.8,0.5-3.5,1.2-5.2,1.8c-1.7,0.6-3.5,1.2-5.1,1.9c-1.8,0.7-3.6,1.5-5.4,2.3
			c-0.2,0.1-0.3,0.3-0.3,0.4c-0.1,0.2,0,0.4,0.1,0.5c0.1,0.2,0.2,0.3,0.4,0.3c0.2,0.1,0.4,0,0.5-0.1c0.5-0.2,1.1-0.5,1.6-0.7
			c0.8-0.3,1.6-0.7,2.5-1c0.9-0.3,1.8-0.7,2.7-1c1.8-0.6,3.5-1.1,5.3-1.6c1.8-0.6,3.7-1.1,5.5-1.6c1.8-0.5,3.6-1,5.3-1.4
			c1.7-0.4,3.4-0.8,5.2-1.1c0.5-0.1,1-0.1,1.6-0.1c0.7,0,1.4-0.1,2.1-0.1c0.5,0,0.9-0.4,0.9-0.9c0-0.2-0.1-0.5-0.3-0.6
			c-0.2-0.2-0.4-0.2-0.6-0.3c-0.5,0-1.1-0.1-1.6-0.1c-0.3,0-0.6-0.1-0.9-0.1C170.4,19.5,170.3,19.5,170.1,19.6z"/>
		<path id="Fill-875-Copy" class="st4" d="M172,22.8c-0.7,0.2-1.5,0.3-2.2,0.5c-0.2,0-0.3,0.1-0.5,0.1c-0.3,0.1-0.5,0.2-0.8,0.2
			c-0.3,0.1-0.5,0.2-0.8,0.2c-0.2,0.1-0.4,0.1-0.5,0.2c-0.5,0.2-1,0.3-1.4,0.5c-0.3,0.1-0.5,0.2-0.8,0.3c-0.3,0.1-0.6,0.2-0.8,0.4
			c-0.4,0.2-0.9,0.4-1.3,0.6c-0.4,0.2-0.8,0.4-1.2,0.7c-0.4,0.3-0.8,0.6-1.3,0.9c-0.2,0.1-0.3,0.3-0.5,0.4c-0.1,0.1-0.1,0.1-0.1,0.2
			c0,0.1,0,0.2,0,0.3c0.1,0.1,0.2,0.2,0.3,0.2c0.1,0,0.2,0,0.3,0c0.8-0.6,1.6-1.2,2.4-1.6c0.4-0.2,0.8-0.4,1.2-0.6
			c0.4-0.2,0.8-0.4,1.2-0.6c0.4-0.2,0.8-0.3,1.2-0.5c0.3-0.1,0.6-0.2,0.9-0.3c0.2-0.1,0.3-0.1,0.5-0.2c0.5-0.2,1.1-0.3,1.6-0.5
			c0.2,0,0.3-0.1,0.5-0.1c0.3-0.1,0.7-0.1,1-0.2c0.4-0.1,0.8-0.2,1.2-0.2c0.2-0.1,0.4-0.3,0.3-0.6c-0.1-0.2-0.3-0.3-0.5-0.3
			C172.1,22.8,172.1,22.8,172,22.8"/>
		<path id="Fill-877-Copy" class="st4" d="M161.3,22.2c0,0.6,0.5,1,1.1,1.1c1.6,0,3.2,0.1,4.8,0.2c0.9,0.1,1.8,0.1,2.6,0.2
			c0.8,0.1,1.7,0.1,2.5,0.2c0.5,0.1,1.1,0.2,1.6,0.3c0.2,0,0.4,0.1,0.5,0.1c0.4,0.1,0.7,0.2,1.1,0.2c0.5,0.1,1,0.3,1.5,0.4
			c0.6,0.1,1.1,0.3,1.7,0.5c1,0.3,2,0.6,2.9,0.9c1,0.4,2,0.8,3,1.2c1.2,0.5,2.4,1.1,3.6,1.7c0.7,0.3,1.4,0.7,2,1
			c0.6,0.3,1.1,0.6,1.6,1c0.3,0.3,0.6,0.5,0.9,0.8c0.1,0.1,0.2,0.3,0.2,0.4c0,0.1,0.1,0.3,0.1,0.4c0,0.4,0,0.7,0,1.1
			c-0.2,1.3-0.5,2.6-0.8,3.8c-0.2,0.9-0.4,1.8-0.4,2.7c0,0.6,0.2,1.2,0.5,1.8c0.1,0.3,0.2,0.6,0.4,0.8c0.5,1.3,1,2.7,1.2,4.1
			c0.2,1.3,0.1,2.7,0,4c0,0.3-0.1,0.6-0.1,0.9c-0.1,0.4-0.2,0.7-0.3,1c-0.2,0.7-0.4,1.3-0.7,1.9c-0.2,0.5-0.4,0.9-0.7,1.3
			c-0.3,0.4-0.6,0.9-0.9,1.3c-0.2,0.2-0.3,0.4-0.5,0.5c-0.2,0.2-0.4,0.4-0.7,0.6c-0.4,0.4-0.8,0.7-1.2,1c-0.7,0.5-1.3,1-2,1.5
			c-0.3,0.2-0.5,0.6-0.8,0.8c-0.3,0.4-0.6,0.8-0.9,1.2c-0.4,0.7-0.8,1.5-1.1,2.3c-0.2,0.7-0.4,1.4-0.7,2.1c-0.1,0.1-0.1,0.2-0.2,0.4
			c-0.8,1-1.8,1.9-2.8,2.7c-0.4,0.3-0.7,0.6-1.1,0.8c-0.5,0.3-1,0.6-1.4,0.9c-1,0.6-2,1.3-3,1.9c-0.9,0.6-1.9,1.2-2.8,1.8
			c-1,0.6-1.9,1.2-2.8,1.8c-0.9,0.6-1.9,1.2-2.8,1.8s-1.9,1.2-2.9,1.8c-1.9,1.3-3.9,2.5-5.8,3.8c-0.4,0.2-0.8,0.4-1.2,0.6
			c-0.4,0.2-0.9,0.4-1.4,0.5c-0.1,0-0.1,0-0.2,0c-0.3-0.1-0.5-0.1-0.7-0.2c-0.9-0.4-1.8-0.9-2.7-1.4c-0.5-0.3-1-0.5-1.5-0.8
			c-0.5-0.3-1.1-0.5-1.7-0.7c-0.5-0.2-1.1-0.4-1.7-0.6c-0.5-0.2-1.1-0.3-1.6-0.5c-0.2-0.1-0.5-0.1-0.7-0.1c-0.4-0.1-0.7-0.1-1.1-0.2
			c-0.6-0.1-1.1-0.1-1.7-0.2c-1.2,0-2.4,0-3.6,0.1c-1.2,0.1-2.3,0.2-3.5,0.3c-1.2,0.2-2.3,0.4-3.4,0.7c-1,0.2-2.1,0.5-3.1,0.8
			c-0.5,0.1-1,0.3-1.5,0.3c-0.1,0-0.2,0-0.3,0c-0.1,0-0.2,0-0.3-0.1c-0.2-0.1-0.4-0.2-0.6-0.4c-0.7-0.5-1.3-1.1-2-1.6c0,0,0,0,0,0
			c-0.8-0.6-1.7-1.3-2.5-2c-0.8-0.7-1.6-1.4-2.4-2.2c-0.9-0.8-1.9-1.6-2.8-2.5c-1-0.9-2-1.8-3-2.7c-0.4-0.4-1.1-0.4-1.5,0
			c-0.4,0.4-0.4,1.1,0,1.5c1,0.9,1.9,1.9,2.9,2.7c0.9,0.8,1.9,1.6,2.8,2.5c0.8,0.7,1.5,1.5,2.4,2.2c0.9,0.7,1.8,1.5,2.7,2.2
			c0.4,0.3,0.8,0.6,1.2,0.9c0.4,0.4,0.8,0.7,1.3,1c0.2,0.1,0.5,0.3,0.7,0.4c0.3,0.1,0.7,0.2,1,0.2c0.3,0,0.6,0,0.9-0.1
			c0.1,0,0.3,0,0.4-0.1c0.6-0.1,1.1-0.3,1.7-0.4c1-0.3,2.1-0.6,3.1-0.8c1-0.2,2-0.4,3-0.6c1.3-0.2,2.6-0.3,3.9-0.3
			c0.7,0,1.4,0,2.1,0c0.7,0,1.3,0.1,2,0.2c0.5,0.1,0.9,0.1,1.3,0.2c0.5,0.1,1,0.2,1.4,0.4c0.5,0.1,0.9,0.3,1.3,0.5
			c0.4,0.1,0.7,0.3,1.1,0.4c1,0.4,1.9,0.9,2.8,1.4c0.5,0.3,1,0.5,1.5,0.7c0.6,0.3,1.2,0.6,1.9,0.7c0.4,0.1,0.8,0.1,1.1,0
			c0.3-0.1,0.6-0.2,0.9-0.3c0.3-0.1,0.7-0.3,1-0.4c0.2-0.1,0.5-0.2,0.7-0.4c0.3-0.1,0.5-0.3,0.8-0.4c1-0.6,2-1.3,3-1.9
			c0.9-0.6,1.8-1.2,2.8-1.8c1-0.6,2-1.2,2.9-1.8c0.9-0.6,1.8-1.2,2.8-1.8c1-0.7,2-1.3,3.1-2c1-0.6,1.9-1.2,2.9-1.8
			c0.9-0.6,1.8-1.2,2.7-1.8c0.5-0.3,1-0.6,1.4-0.9c0.5-0.4,1.1-0.8,1.6-1.2c0.9-0.7,1.7-1.4,2.4-2.2c0.3-0.3,0.6-0.7,0.8-1.1
			c0.2-0.4,0.3-0.8,0.5-1.3c0.2-0.6,0.4-1.2,0.6-1.8c0.2-0.4,0.3-0.7,0.5-1c0.2-0.4,0.5-0.7,0.7-1.1c0.2-0.3,0.4-0.5,0.7-0.7
			c0.2-0.2,0.4-0.4,0.7-0.6c0.9-0.7,1.8-1.3,2.6-2.1c0.2-0.2,0.4-0.4,0.7-0.6c0.2-0.2,0.4-0.5,0.6-0.8c0.4-0.5,0.7-0.9,1-1.4
			c0.6-0.9,1.1-2,1.4-3.1c0.2-0.5,0.4-1.1,0.5-1.7c0.1-0.7,0.2-1.3,0.3-2c0.1-0.8,0-1.5,0-2.3c0-0.9-0.1-1.7-0.3-2.5
			c-0.2-0.7-0.3-1.4-0.6-2c-0.2-0.7-0.5-1.4-0.8-2.1c-0.2-0.4-0.3-0.8-0.4-1.3c0-0.3,0-0.6,0-0.8c0.2-1,0.4-2.1,0.7-3.1
			c0.1-0.5,0.2-1.1,0.3-1.6c0.1-0.3,0.1-0.6,0.1-0.9c0-0.1,0-0.3,0.1-0.4c0.1-0.5,0-1-0.1-1.5c-0.1-0.4-0.2-0.7-0.4-1
			c-0.2-0.3-0.4-0.6-0.6-0.8c-0.2-0.2-0.3-0.4-0.5-0.5c-0.2-0.2-0.4-0.3-0.6-0.5c-0.5-0.3-0.9-0.7-1.4-0.9c-1-0.6-2-1-3-1.5
			c-1.1-0.5-2.2-1-3.3-1.5c-1.1-0.5-2.2-0.9-3.4-1.3c-1-0.4-2.1-0.7-3.1-1c-1.1-0.3-2.2-0.7-3.3-0.9c-0.5-0.1-1-0.2-1.5-0.3
			c-0.4-0.1-0.7-0.1-1.1-0.2c-0.2,0-0.5-0.1-0.7-0.1c-1.1-0.1-2.2-0.2-3.2-0.2c-1.2-0.1-2.4-0.1-3.7-0.2c-1-0.1-2.1-0.1-3.1-0.1h0
			C161.8,21.2,161.3,21.7,161.3,22.2"/>
		<path id="Fill-879-Copy" class="st4" d="M111.4,65.6C111.4,65.7,111.4,65.7,111.4,65.6C111.4,65.7,111.4,65.7,111.4,65.6z
			 M153.9,0c-0.3,0-0.7,0-1,0c-0.5,0-0.9,0-1.4,0.1c-0.6,0-1.1,0.1-1.7,0.1c-1.1,0.1-2.1,0.2-3.2,0.4c-0.5,0.1-1,0.2-1.5,0.3
			c-0.5,0.1-1,0.2-1.5,0.3c-1,0.2-2,0.5-3,0.8c-0.5,0.1-1,0.3-1.5,0.4c-0.5,0.1-0.9,0.3-1.4,0.5c-0.5,0.2-0.9,0.4-1.4,0.5
			c-0.5,0.2-1.1,0.4-1.6,0.7c-0.9,0.5-1.9,0.9-2.8,1.4c-0.5,0.3-0.9,0.5-1.4,0.9c-0.4,0.3-0.8,0.6-1.2,0.9c-0.8,0.7-1.7,1.3-2.5,2.1
			l-0.7,0.6c-0.2,0.2-0.4,0.4-0.6,0.6c-0.4,0.4-0.7,0.8-1.1,1.2c-0.7,0.8-1.4,1.7-2,2.6c-0.3,0.5-0.7,0.9-1,1.4
			c-0.3,0.4-0.5,0.9-0.8,1.3c-0.5,0.9-1,1.8-1.4,2.8c-0.5,1-0.8,2-1.2,2.9c-0.4,1-0.8,2-1.1,3c-0.3,0.9-0.7,1.9-1,2.8
			c-0.3,1-0.7,1.9-0.9,2.9c-0.2,1-0.5,2-0.7,3c-0.4,2-0.8,4-1.1,6c-0.2,1.1-0.4,2.2-0.5,3.3c-0.2,1-0.3,1.9-0.4,2.9
			c-0.3,2.1-0.7,4.1-1,6.2c-0.3,2.1-0.6,4.2-1,6.3c-0.2,1-0.4,2-0.6,3.1c-0.2,1.1-0.3,2.2-0.5,3.4c-0.3,2.2-0.5,4.4-0.8,6.6
			c-0.2,2.1-0.3,4.2-0.4,6.3c-0.1,2.1-0.2,4.2-0.3,6.3c0,0.4,0,0.9,0,1.3c0,0.6,0,1.2,0,1.8c0,0.6,0.5,1.1,1.1,1.1
			c0.6,0,1.1-0.5,1.1-1.1c0-1.2,0-2.4,0.1-3.5c0.1-1.1,0.1-2.2,0.2-3.4c0.1-2.1,0.2-4.3,0.4-6.4c0.2-3,0.6-6.1,1-9.1
			c0.1-1,0.3-1.9,0.4-2.9c0.2-1.1,0.4-2.2,0.6-3.4c0.2-1,0.4-2,0.5-3.1c0.2-1,0.3-2,0.4-2.9c0.3-2.1,0.7-4.1,1-6.2
			c0.1-1.1,0.3-2.1,0.5-3.2c0.2-1,0.3-2,0.5-3c0.2-1.1,0.4-2.2,0.6-3.2c0.2-1,0.4-2,0.6-3c0.2-1,0.4-1.9,0.7-2.9c0.3-1,0.6-2,0.9-3
			c0.4-1.2,0.9-2.5,1.3-3.7c0.4-1.2,0.9-2.3,1.4-3.4c0.5-1.2,1.1-2.4,1.8-3.6c0.4-0.6,0.8-1.2,1.2-1.9c0.4-0.6,0.8-1.1,1.2-1.6
			c0.8-1,1.7-2,2.6-3c0.5-0.5,1-0.9,1.5-1.4c0.5-0.4,0.9-0.8,1.4-1.2c0.5-0.3,0.9-0.7,1.4-1c0.5-0.4,1.1-0.6,1.6-0.9
			c0.6-0.3,1.1-0.6,1.7-0.9c0.5-0.3,1-0.5,1.6-0.7c0.9-0.4,1.8-0.7,2.7-1c1-0.3,2-0.6,3-0.9c1-0.3,2-0.5,3-0.7
			c0.5-0.1,1-0.2,1.5-0.3c0.5-0.1,1-0.2,1.6-0.3c0,0,0,0,0.1,0c1-0.1,2.1-0.2,3.1-0.3c1.4-0.1,2.7-0.1,4.1,0
			c0.8,0.1,1.6,0.3,2.4,0.5c0.7,0.2,1.3,0.3,2,0.5c0.4,0.1,0.9-0.2,1-0.6c0.1-0.5-0.2-0.9-0.6-1c-1.1-0.4-2.2-0.7-3.2-1
			c-1-0.3-2-0.4-3-0.5C154.4,0,154.2,0,153.9,0L153.9,0z"/>
		<path id="Fill-881-Copy" class="st4" d="M202.4,65.9C202.4,65.9,202.4,66,202.4,65.9C202.4,66,202.4,65.9,202.4,65.9 M196.2,11.4
			c-0.2,0-0.3,0.2-0.4,0.3c-0.1,0.2-0.1,0.4-0.1,0.5c0.1,0.2,0.2,0.3,0.3,0.4c0.6,0.4,1.2,0.9,1.8,1.3c0.5,0.4,1,0.7,1.6,1.1
			c0.4,0.3,0.7,0.6,1.1,0.9c0.4,0.4,0.8,0.7,1.2,1.1c0.4,0.3,0.7,0.7,1,1.1c0.3,0.4,0.6,0.7,0.9,1.1c0.4,0.5,0.8,1.1,1.2,1.6
			c0.4,0.6,0.7,1.2,1.1,1.8c0.3,0.6,0.7,1.2,1,1.7c0.3,0.6,0.6,1.2,0.9,1.8c0.1,0.2,0.2,0.5,0.3,0.7c0.1,0.3,0.2,0.6,0.3,0.9
			c0.2,0.6,0.4,1.2,0.6,1.9c0.4,1.2,0.6,2.4,0.8,3.7c0.1,0.7,0.2,1.4,0.2,2.1c0,0.8,0.1,1.6,0.1,2.5c0,1.5-0.2,3-0.4,4.4
			c-0.1,0.4-0.1,0.7-0.2,1.1c-0.1,0.4-0.2,0.8-0.2,1.2c-0.2,0.7-0.3,1.5-0.5,2.2c-0.2,0.8-0.4,1.6-0.7,2.3c-0.2,0.7-0.5,1.4-0.8,2.1
			c-0.4,0.9-0.8,1.7-1.2,2.6c-0.4,0.9-0.9,1.7-1.4,2.6c-0.5,0.9-0.9,1.8-1.4,2.7c-0.4,0.8-0.8,1.6-1.2,2.4c-0.5,1-0.9,2-1.3,3
			c-0.2,0.5-0.3,0.9-0.5,1.4c-0.2,0.5-0.3,1.1-0.4,1.6c-0.1,0.3,0,0.5,0.1,0.7c0.1,0.2,0.3,0.4,0.6,0.4c0.5,0.1,1-0.2,1.2-0.7
			c0.2-0.8,0.5-1.6,0.8-2.4c0.3-0.8,0.7-1.6,1.1-2.4c0.5-0.9,0.9-1.9,1.4-2.8c0.9-1.7,1.8-3.4,2.7-5.2c0.4-0.8,0.9-1.7,1.2-2.5
			c0.4-1,0.8-1.9,1.1-2.9c0.3-1,0.6-1.9,0.8-2.9c0.2-0.9,0.5-1.9,0.6-2.9c0.2-1.1,0.3-2.2,0.4-3.3c0.1-1,0.2-1.9,0.2-2.9
			c0-0.5,0-1,0-1.5c0-0.5,0-0.9-0.1-1.4c-0.1-1-0.2-2.1-0.4-3.1c-0.2-0.9-0.4-1.9-0.7-2.8c-0.2-0.5-0.3-1-0.5-1.5
			c-0.2-0.5-0.4-1-0.6-1.5c-0.2-0.4-0.4-0.9-0.6-1.3c-0.2-0.5-0.5-0.9-0.7-1.4c-0.5-0.9-1-1.7-1.5-2.5c-0.5-0.8-1.1-1.6-1.8-2.4
			c-0.6-0.7-1.2-1.5-1.9-2.1c-0.7-0.7-1.5-1.4-2.3-2c-0.4-0.3-0.8-0.6-1.2-0.9c-0.4-0.3-0.8-0.6-1.3-0.9c-0.6-0.4-1.2-0.8-1.8-1.2
			c-0.1-0.1-0.2-0.1-0.3-0.1C196.4,11.4,196.3,11.4,196.2,11.4"/>
		<path id="Fill-883-Copy" class="st4" d="M182.2,105.1c0,0.1,0,0.2,0,0.2C182.2,105.2,182.2,105.1,182.2,105.1 M183.7,94.8
			l-0.2,0.2c-0.1,0.2-0.1,0.4-0.1,0.6c-0.4,3.3-0.8,6.5-1.2,9.8c-0.1,1.1-0.3,2.2-0.5,3.2c-0.2,1.1-0.4,2.1-0.6,3.2
			c-0.2,1.1-0.4,2.2-0.6,3.4c-0.1,0.5-0.2,1-0.3,1.5c-0.1,0.6-0.2,1.1-0.3,1.7c-0.2,1.5-0.4,3.1-0.5,4.6c0,0.6,0.5,1,1,1
			c0.3,0,0.5-0.1,0.7-0.3c0.2-0.2,0.3-0.4,0.3-0.7c0-0.4,0.1-0.8,0.1-1.3c0,0.1,0,0.2,0,0.3c0.1-1.1,0.3-2.2,0.5-3.3
			c0.2-1.2,0.5-2.4,0.7-3.5c0.2-1,0.4-2.1,0.6-3.1c0.2-1.1,0.4-2.3,0.6-3.5c0.3-2,0.6-4,0.8-6.1c0.3-2.3,0.6-4.6,0.9-7
			c0-0.3-0.1-0.6-0.3-0.8c-0.2-0.2-0.5-0.3-0.8-0.3S183.9,94.6,183.7,94.8"/>
		<path id="Fill-885-Copy" class="st4" d="M128.2,44c-1.1,0-2.3,0-3.4,0.1c-1.1,0.1-2.2,0.3-3.2,0.5c-0.5,0.1-0.9,0.6-0.8,1.2
			c0.1,0.5,0.6,0.9,1.2,0.8c0.7-0.1,1.3-0.3,2-0.4c0.5-0.1,1.1-0.1,1.6-0.2c2.2-0.1,4.4-0.1,6.6,0c2.2,0,4.4,0.1,6.6,0.2
			c2.2,0.1,4.5,0.2,6.7,0.3c2.2,0.1,4.5,0.3,6.7,0.5c1.5,0.1,3.1,0.3,4.6,0.5c1.5,0.2,3.1,0.5,4.6,0.8c0.2,0,0.4,0,0.5-0.1
			c0.2-0.1,0.4-0.3,0.5-0.6c0.2-0.5-0.1-1.2-0.6-1.4c-1.2-0.3-2.4-0.5-3.6-0.7c-1.1-0.2-2.2-0.3-3.3-0.4c-2.3-0.2-4.6-0.4-6.9-0.6
			c-2.2-0.1-4.4-0.3-6.6-0.4c-2.3-0.1-4.6-0.1-6.8-0.2c-1.6,0-3.1,0-4.7,0C129.2,44,128.7,44,128.2,44"/>
	</g>
	<path id="Path-2" class="st5" d="M178.4,86.8c3.7,2,5.6,5.1,5.8,7.5c0.5,5.6-13,12.7-23.4,12.7c-1.7,0-8.6-9.7-7.1-11.3
		c5-5.4,12.4-7,20.5-9C175.7,86.4,177.1,86.4,178.4,86.8z"/>
	<path id="Path-3" class="st6" d="M167.4,89c0.4,7.4,0.4,11.1-3.8,18"/>
	<path id="Path-4" class="st7" d="M180.2,100.4c-6-1.7-8.1-5.3-12.1-6.2"/>
</g>
<g>
	<g>
		<path class="st4" d="M228,95.1c-3.4-9.4,9.4-14,16.6-13.2c5.8,0.6,8.6,5.8,6,11.1c-1.8,3.5-5.3,5.6-8.3,7.8
			c-3.8,2.6-8.1,5.9-8.6,10.8c-0.5,4.8,3,8.6,6.7,11.1c1.6,1.1,3.2-1.2,2-2.6c-2-2.2-4.2-3.9-4.5-6.9c-0.4-3.3,1.5-5.3,3.9-7.3
			c3.2-2.6,6.9-4.5,9.7-7.6c4.4-4.9,6.2-13.1,0.4-17.7c-9.5-7.6-33.7,1.8-26.5,15.7C226,97.7,228.6,96.7,228,95.1L228,95.1z"/>
	</g>
</g>
<g>
	<g>
		<path class="st4" d="M250.1,129.1c0.2,0,0.2-0.3,0-0.3C249.9,128.8,249.9,129.1,250.1,129.1L250.1,129.1z"/>
	</g>
</g>
<g>
	<g>
		<path class="st4" d="M247.2,128.7c2.5,0,2.5-3.9,0-3.9C244.7,124.8,244.7,128.7,247.2,128.7L247.2,128.7z"/>
	</g>
</g>
<g>
	<g>
		<path class="st4" d="M268.4,170.2c-13.1,2.7-25-3.9-26.6-17.7c-0.1-0.7-0.5-1.2-1.2-1.2c-25.7-2.7-57.3-7.1-69.6-33.6
			c-5.8-12.6-3.1-26.6,5.5-37.1c8.6-10.5,21.4-16.3,34.3-19.6c25.5-6.6,54.9-6,77.7,8.3c10.6,6.7,20,17.5,22.5,30.1
			c2.7,13.6-4.7,25.6-15.5,33.2c-5.5,3.9-11.7,6.6-18,8.9c-5.1,1.9-10.5,3.7-14.5,7.5c-3,2.8-5.6,6.8-4.9,11.1
			c0.9,5,5.7,8.4,9.6,11.2c1.8,1.3,3.5-1.7,1.7-3c-2.7-1.9-6.1-4.2-7.5-7.3c-2-4.3,1.9-8.6,5.2-11c5.1-3.6,11.3-5,17-7.4
			c10.8-4.5,21.6-11.7,27.1-22.4c12-23.2-7.2-47.3-27.5-57.3c-24.7-12.2-55.4-11.7-81.1-3c-23,7.8-45.5,29.4-36,55.7
			c10.9,30.3,45.9,36.1,73.9,38.2c-0.4-0.4-0.8-0.8-1.2-1.2c2,15.4,14.7,23,29.6,19.3C269.8,171.5,269.4,170,268.4,170.2
			L268.4,170.2z"/>
	</g>
</g>
</svg>
